<svg width="32" height="32" viewBox="0 0 32 32" fill="none" xmlns="http://www.w3.org/2000/svg">
<path d="M22.704 14.4819C22.224 14.4819 21.8543 14.5876 21.5309 14.7454C21.2086 14.9031 20.9971 15.1208 20.7869 15.3316C20.576 15.5419 20.4657 15.8128 20.4114 16.0756C20.3589 16.3396 20.3063 16.5574 20.3063 16.7671H25.1006C24.996 15.9768 24.7263 15.4431 24.3577 15.0676C23.9834 14.6928 23.396 14.4819 22.704 14.4819Z" fill="white"/>
<path d="M10.7646 16.6079H7.25372V20.7108H10.7103V20.7171C11.0332 20.7171 11.3486 20.6656 11.62 20.6125C11.8823 20.5611 12.1532 20.4548 12.364 20.2896C12.5749 20.1262 12.7394 19.9679 12.8983 19.7045C13.0029 19.4411 13.108 19.1188 13.1074 18.7428C13.1074 17.9982 12.8977 17.4656 12.4686 17.0896C12.0412 16.7656 11.4549 16.6079 10.7646 16.6079Z" fill="white"/>
<path d="M11.9886 14.0003C12.3577 13.7306 12.5229 13.2563 12.5229 12.6706C12.5229 12.3478 12.4692 12.0318 12.364 11.8209C12.2572 11.61 12.1012 11.4449 11.8823 11.2878C11.6714 11.182 11.4549 11.0769 11.192 11.0238C10.928 10.9712 10.6583 10.9712 10.3429 10.9712H7.25429H7.25372V14.4358C7.25372 14.4289 10.5526 14.4289 10.5526 14.4289C11.1394 14.4289 11.6194 14.2712 11.9886 14.0003Z" fill="white"/>
<path d="M29.7143 0H2.28571C1.02857 0 0 1.02857 0 2.28571V29.7143C0 30.9714 1.02857 32 2.28571 32H29.7143C30.9714 32 32 30.9714 32 29.7143V2.28571C32 1.02857 30.9714 0 29.7143 0ZM19.6686 9.47657H25.6337V10.9126H19.6686V9.47657ZM15.9337 20.8183C15.6703 21.3514 15.2429 21.832 14.7611 22.1474C14.2817 22.4703 13.6949 22.7343 13.0554 22.8931C12.4166 23.0503 11.7783 23.1566 11.14 23.1566L4 23.1691V8.46229H10.9817C11.6726 8.46229 12.3126 8.51543 12.8989 8.67314C13.4846 8.77829 13.9646 8.996 14.3926 9.25943C14.8211 9.52286 15.1377 9.89771 15.3537 10.3789C15.5651 10.8589 15.6766 11.4451 15.6766 12.0846C15.6766 12.8286 15.5183 13.4674 15.1434 13.9486C14.8211 14.4291 14.2943 14.8566 13.6486 15.1737C14.5571 15.4371 15.2491 15.9171 15.6703 16.5566C16.0914 17.1949 16.3617 17.992 16.3617 18.9017C16.3617 19.6463 16.204 20.284 15.9337 20.8183ZM27.9789 18.572H20.2531C20.2531 19.4411 20.5697 20.2383 20.9971 20.6663C21.4257 21.0937 22.0646 21.3046 22.9137 21.3046C23.4994 21.3046 24.0331 21.1469 24.4617 20.8766C24.8903 20.5537 25.1526 20.2377 25.2589 19.9149H27.8669C27.4383 21.1926 26.7989 22.1006 25.9503 22.6874C25.1 23.2211 24.0869 23.5377 22.8611 23.5377C22.0126 23.5377 21.2617 23.3789 20.5697 23.1091C19.8783 22.8457 19.3446 22.4697 18.8634 21.936C18.3834 21.456 18.0149 20.8703 17.7983 20.1783C17.5326 19.4863 17.4229 18.7423 17.4229 17.8869C17.4229 17.0891 17.5269 16.3383 17.7983 15.6463C18.0674 14.9554 18.4354 14.3691 18.9166 13.8354C19.3977 13.3543 19.9846 12.9269 20.6217 12.6629C21.3143 12.3994 22.0046 12.2349 22.8611 12.2349C23.7714 12.2349 24.568 12.3931 25.2589 12.768C25.9503 13.144 26.4846 13.5657 26.912 14.2046C27.3406 14.7903 27.6577 15.4823 27.8743 16.2263C27.9794 16.9709 28.0326 17.7223 27.9789 18.572Z" fill="white"/>
</svg>
