<?xml version="1.0" encoding="utf-8"?>
<!-- Generator: Adobe Illustrator 16.0.4, SVG Export Plug-In . SVG Version: 6.00 Build 0)  -->
<!DOCTYPE svg PUBLIC "-//W3C//DTD SVG 1.1//EN" "http://www.w3.org/Graphics/SVG/1.1/DTD/svg11.dtd">
<svg version="1.1" id="Layer_1" xmlns="http://www.w3.org/2000/svg" xmlns:xlink="http://www.w3.org/1999/xlink" x="0px" y="0px"
	 width="56px" height="56px" viewBox="0 0 56 56" enable-background="new 0 0 56 56" xml:space="preserve">
<path fill="#272626" d="M56,52c0,2.2-1.8,4-4,4H4c-2.2,0-4-1.8-4-4V4c0-2.2,1.8-4,4-4h48c2.2,0,4,1.8,4,4V52z"/>
<g>
	<path fill="#FFFFFF" d="M23.885,26.554c1.13-0.555,2.052-1.303,2.616-2.144c0.656-0.842,0.933-1.96,0.933-3.262
		c0-1.119-0.195-2.145-0.565-2.985c-0.378-0.842-0.932-1.498-1.682-1.959c-0.749-0.461-1.589-0.842-2.614-1.026
		c-1.026-0.276-2.146-0.369-3.355-0.369H7v25.737l12.495-0.023c1.117,0,2.234-0.185,3.352-0.461
		c1.119-0.277,2.146-0.739,2.985-1.304c0.843-0.552,1.591-1.394,2.052-2.326c0.473-0.935,0.749-2.051,0.749-3.354
		c0-1.591-0.473-2.986-1.21-4.103C26.686,27.855,25.475,27.015,23.885,26.554z M12.695,19.2h5.405c0.552,0,1.024,0,1.486,0.092
		c0.46,0.093,0.839,0.277,1.208,0.462c0.383,0.275,0.656,0.564,0.843,0.933c0.184,0.369,0.278,0.922,0.278,1.487
		c0,1.025-0.289,1.855-0.935,2.327c-0.646,0.474-1.486,0.75-2.513,0.75c0,0-5.773,0-5.773,0.012V19.2z M22.572,34.482
		c-0.278,0.461-0.566,0.739-0.935,1.025c-0.369,0.289-0.843,0.475-1.302,0.565c-0.475,0.093-1.027,0.183-1.592,0.183v-0.011h-6.049
		v-7.179h6.144c1.208,0,2.234,0.275,2.982,0.842c0.751,0.658,1.118,1.59,1.118,2.893C22.939,33.457,22.755,34.021,22.572,34.482z"/>
	<rect x="34.42" y="16.584" fill="#FFFFFF" width="10.44" height="2.513"/>
	<path fill="#FFFFFF" d="M48.78,28.397c-0.38-1.302-0.935-2.513-1.684-3.538c-0.749-1.118-1.683-1.856-2.893-2.514
		c-1.209-0.656-2.604-0.933-4.196-0.933c-1.499,0-2.707,0.288-3.919,0.749c-1.116,0.462-2.143,1.21-2.984,2.052
		c-0.842,0.934-1.487,1.96-1.957,3.169c-0.476,1.211-0.658,2.525-0.658,3.921c0,1.497,0.193,2.799,0.658,4.009
		c0.378,1.211,1.024,2.237,1.864,3.077c0.842,0.933,1.776,1.591,2.986,2.052c1.211,0.472,2.524,0.75,4.01,0.75
		c2.145,0,3.918-0.554,5.406-1.488c1.486-1.026,2.604-2.615,3.355-4.852h-4.565c-0.185,0.565-0.645,1.118-1.395,1.683
		c-0.749,0.473-1.683,0.749-2.709,0.749c-1.486,0-2.604-0.369-3.354-1.117c-0.748-0.749-1.301-2.145-1.301-3.665h13.519
		C49.057,31.013,48.964,29.699,48.78,28.397z M35.537,29.342c0-0.367,0.092-0.748,0.184-1.21c0.095-0.46,0.288-0.934,0.657-1.302
		c0.368-0.369,0.737-0.75,1.302-1.026c0.565-0.276,1.213-0.461,2.053-0.461c1.21,0,2.237,0.369,2.894,1.025
		c0.644,0.657,1.117,1.591,1.3,2.974H35.537z"/>
</g>
</svg>
