<?xml version="1.0" encoding="utf-8"?>
<!-- Generator: Adobe Illustrator 16.0.4, SVG Export Plug-In . SVG Version: 6.00 Build 0)  -->
<!DOCTYPE svg PUBLIC "-//W3C//DTD SVG 1.1//EN" "http://www.w3.org/Graphics/SVG/1.1/DTD/svg11.dtd">
<svg version="1.1" id="Layer_1" xmlns="http://www.w3.org/2000/svg" xmlns:xlink="http://www.w3.org/1999/xlink" x="0px" y="0px"
	 width="96px" height="96px" viewBox="0 0 96 96" enable-background="new 0 0 96 96" xml:space="preserve">
<g>
	<g>
		<path fill="#E23C52" d="M43.416,46.165h-5.553c-1.104,0-2,0.895-2,2c0,1.104,0.896,2,2,2h5.553c1.105,0,2-0.896,2-2
			C45.416,47.06,44.521,46.165,43.416,46.165z"/>
		<path fill="#E23C52" d="M68.763,50.169c0.017,0,0.032-0.004,0.048-0.004h2.949c1.104,0,2-0.896,2-2c0-1.105-0.896-2-2-2h-2.949
			c-0.016,0-0.031-0.006-0.048-0.006h-9c-1.101,0-2,0.9-2,2c0,1.111,0.899,2.01,2,2.01H68.763z"/>
		<path fill="#E23C52" d="M53.593,48.159c0-1.1-0.9-2-2-2c-1.101,0-2,0.9-2,2c0,1.111,0.899,2.01,2,2.01
			C52.692,50.169,53.593,49.271,53.593,48.159z"/>
		<path fill="#E23C52" d="M31.908,57.972h3c1.105,0,2-0.895,2-2c0-1.104-0.895-2-2-2h-3c-1.104,0-2,0.896-2,2
			C29.908,57.077,30.805,57.972,31.908,57.972z"/>
		<path fill="#E23C52" d="M43.832,55.972c0,1.109,0.891,2,2,2c1.101,0,2-0.891,2-2c0-1.1-0.899-2-2-2
			C44.723,53.972,43.832,54.872,43.832,55.972z"/>
		<path fill="#E23C52" d="M54.752,55.97c0,1.109,0.891,2,2,2h11.969c0.014,0,0.025,0.004,0.039,0.004h3c1.104,0,2-0.895,2-2
			c0-1.104-0.896-2-2-2h-2.959c-0.013,0-0.025-0.004-0.038-0.004H56.752C55.643,53.97,54.752,54.87,54.752,55.97z"/>
		<path fill="#3D68B0" d="M76.984,24.153h-5.969c-1.056,0-2.33,0.506-3.1,1.229l-3.487,3.27v-1.779c0-1.654-1.346-3-3-3h-4.823
			c-1.053,0-2.324,0.5-3.094,1.215l-6.806,6.324h-4.745v-2.547c0-2.771-2.255-5.025-5.027-5.025c-2.633,0-4.816,2.041-5.026,4.621
			c-0.009,0.044-0.012,1.306-0.012,2.951h-0.015v4h0.019c0.004,2.104,0.008,3.869,0.008,3.869c0,2.35,1.911,4.26,4.26,4.26
			c2.35,0,4.261-1.91,4.261-4.26v-1.309c0-1.105-0.896-2-2-2s-2,0.895-2,2v1.309c0,0.285-0.521,0.287-0.521,0v-3.869h25.201
			c1.054,0,2.325-0.385,3.093-1.105l6.433-5.99c0.081-0.062,0.308-0.152,0.382-0.162h4.969v38.168c0,1.014-0.823,1.84-1.837,1.84
			l-52.292-0.178c-1.015,0-1.84-0.826-1.84-1.84V37.251c0-1.016,0.825-1.84,1.832-1.84h7.149v-4h-7.142
			c-3.221,0-5.84,2.619-5.84,5.84v28.893c0,3.219,2.619,5.84,5.834,5.84l52.289,0.178h0.006c3.221,0,5.84-2.619,5.84-5.84V27.153
			C79.984,25.499,78.639,24.153,76.984,24.153z M37.961,31.411h-2.054v-2.547c0-0.566,0.46-1.025,1.026-1.025
			s1.027,0.459,1.027,1.025V31.411z M60.429,31.411H52.58l3.633-3.377c0.084-0.062,0.314-0.152,0.393-0.162h3.823V31.411z"/>
	</g>
	<path fill="#21B8BF" d="M49.285,91.463c-0.718,0.718-1.886,0.717-2.603,0l-2.485-2.484l-2.828,2.828l2.485,2.485
		c2.276,2.275,5.981,2.277,8.255,0.004l2.51-2.493l-2.828-2.829L49.285,91.463z"/>
	<path fill="#21B8BF" d="M43.854,1.708l-2.485,2.485l2.828,2.828l2.485-2.484c0.717-0.717,1.885-0.718,2.603,0l2.506,2.489
		l2.828-2.829l-2.51-2.493C49.836-0.57,46.131-0.568,43.854,1.708z"/>
	<path fill="#21B8BF" d="M94.296,44.466l-2.493-2.51l-2.829,2.828l2.489,2.506c0.718,0.718,0.717,1.886,0,2.603l-2.484,2.485
		l2.828,2.828l2.485-2.485C96.567,50.444,96.569,46.739,94.296,44.466z"/>
	<path fill="#21B8BF" d="M7.026,44.784l-2.829-2.828l-2.493,2.51c-2.273,2.273-2.271,5.979,0.004,8.255l2.485,2.485l2.828-2.828
		l-2.484-2.485c-0.717-0.717-0.718-1.885,0-2.603L7.026,44.784z"/>
</g>
</svg>
