<?xml version="1.0" encoding="utf-8"?>
<!-- Generator: Adobe Illustrator 16.0.4, SVG Export Plug-In . SVG Version: 6.00 Build 0)  -->
<!DOCTYPE svg PUBLIC "-//W3C//DTD SVG 1.1//EN" "http://www.w3.org/Graphics/SVG/1.1/DTD/svg11.dtd">
<svg version="1.1" id="Layer_1" xmlns="http://www.w3.org/2000/svg" xmlns:xlink="http://www.w3.org/1999/xlink" x="0px" y="0px"
	 width="96.001px" height="96px" viewBox="0 0 96.001 96" enable-background="new 0 0 96.001 96" xml:space="preserve">
<g>
	<g>
		<path fill="#21B8BF" d="M62.588,4l-7.374,7.406l29.273,29.397l7.372-7.405L62.588,4z M60.819,11.406l1.769-1.777l23.667,23.77
			l-1.768,1.776L60.819,11.406z"/>
		<path fill="#21B8BF" d="M4.238,62.601L33.51,92l7.373-7.406L11.611,55.197L4.238,62.601z M33.51,86.37L9.843,62.601l1.769-1.776
			l23.667,23.769L33.51,86.37z"/>
	</g>
	<g>
		<polygon fill="#3D68B0" points="45.954,41.934 49.916,41.986 50.131,25.346 59.653,15.783 56.852,12.968 46.19,23.674 		"/>
		<polygon fill="#3D68B0" points="45.937,53.957 46.097,70.571 36.469,80.239 39.27,83.052 50.074,72.203 49.898,53.917 		"/>
		<polygon fill="#3D68B0" points="80.15,36.369 70.64,45.921 23.906,45.938 13.11,56.778 15.912,59.592 25.548,49.917 72.281,49.9 
			82.953,39.182 		"/>
		<path fill="#3D68B0" d="M11.805,38.883L9.52,40.743C12.896,22.508,29.013,8.745,47.844,8.745V4.765
			c-21.055,0-39.025,15.623-42.374,36.16l-2.39-2.964L0,40.466l6.398,7.936l7.9-6.426L11.805,38.883z"/>
	</g>
	<g>
		<ellipse fill="#E23C52" cx="24.744" cy="59.584" rx="2.104" ry="2.113"/>
		<ellipse fill="#E23C52" cx="36.08" cy="59.707" rx="2.104" ry="2.115"/>
		<ellipse fill="#E23C52" cx="36.264" cy="71.314" rx="2.104" ry="2.115"/>
		<ellipse fill="#E23C52" cx="56.446" cy="39.85" rx="2.104" ry="2.114"/>
		<ellipse fill="#E23C52" cx="64.699" cy="31.601" rx="2.105" ry="2.114"/>
		<path fill="#E23C52" d="M96.001,55.372l-6.399-7.936l-7.9,6.426l2.494,3.094l2.287-1.859
			c-3.378,18.231-19.494,31.997-38.325,31.997v3.979c21.055,0,39.025-15.625,42.373-36.161l2.391,2.965L96.001,55.372z"/>
	</g>
</g>
</svg>
