<?xml version="1.0" encoding="utf-8"?>
<!-- Generator: Adobe Illustrator 16.0.4, SVG Export Plug-In . SVG Version: 6.00 Build 0)  -->
<!DOCTYPE svg PUBLIC "-//W3C//DTD SVG 1.1//EN" "http://www.w3.org/Graphics/SVG/1.1/DTD/svg11.dtd">
<svg version="1.1" id="Layer_1" xmlns="http://www.w3.org/2000/svg" xmlns:xlink="http://www.w3.org/1999/xlink" x="0px" y="0px"
	 width="64px" height="48px" viewBox="-3.25 0.75 64 48" enable-background="new -3.25 0.75 64 48" xml:space="preserve">
<g>
	<path fill="#272626" d="M57.748,1.062h-5.971c-1.058,0-2.332,0.502-3.102,1.22l-3.49,3.248V3.763c0-1.644-1.346-2.98-3.001-2.98
		h-4.825c-1.053,0-2.325,0.497-3.095,1.207l-6.81,6.282h-4.747v-2.53c0-2.753-2.257-4.992-5.03-4.992
		c-2.634,0-4.819,2.027-5.03,4.59c-0.008,0.042-0.012,1.296-0.012,2.932h-0.014v3.973h0.018c0.004,2.089,0.008,3.843,0.008,3.843
		c0,2.334,1.913,4.231,4.262,4.231c2.351,0,4.263-1.897,4.263-4.231v-1.3c0-1.098-0.896-1.987-2-1.987
		c-1.106,0-2.001,0.889-2.001,1.987v1.3c0,0.283-0.521,0.285-0.521,0v-3.843h25.214c1.055,0,2.328-0.382,3.095-1.098l6.435-5.95
		c0.082-0.062,0.309-0.151,0.384-0.161h4.971v37.914c0,1.007-0.824,1.827-1.839,1.827L2.592,44.601
		c-1.016,0-1.841-0.821-1.841-1.828v-28.7c0-1.009,0.825-1.828,1.833-1.828h7.152V8.272H2.592c-3.222,0-5.842,2.602-5.842,5.801
		v28.7c0,3.197,2.62,5.801,5.836,5.801l52.315,0.177h0.006c3.223,0,5.843-2.602,5.843-5.801V4.042
		C60.75,2.399,59.404,1.062,57.748,1.062z M18.706,8.272H16.65v-2.53c0-0.562,0.461-1.019,1.028-1.019
		c0.566,0,1.028,0.456,1.028,1.019V8.272z M41.184,8.272h-7.852l3.635-3.354c0.084-0.062,0.314-0.151,0.393-0.161h3.824V8.272z"/>
	<path fill="#272626" d="M36.07,39.836l5.956-16.885h-3.903c0,0-3.67,10.833-3.821,11.375c-0.136-0.467-3.828-11.375-3.828-11.375
		h-3.843l5.894,16.885H36.07z"/>
	<path fill="#272626" d="M23.597,22.725c-1.636,0-3.085,0.356-4.311,1.056c-1.239,0.708-2.198,1.739-2.849,3.065
		c-0.639,1.301-0.964,2.832-0.964,4.548c0,2.731,0.676,4.874,2.009,6.37c1.352,1.519,3.295,2.289,5.778,2.289
		c1.639,0,3.131-0.25,4.435-0.739l0.367-0.138v-3.364l-0.736,0.225c-0.676,0.207-1.322,0.375-1.915,0.499
		c-0.589,0.124-1.206,0.188-1.835,0.188c-1.391,0-2.414-0.419-3.127-1.281c-0.732-0.882-1.101-2.238-1.101-4.028
		c0-1.704,0.387-3.046,1.152-3.986c0.747-0.918,1.755-1.365,3.076-1.365c0.596,0,1.172,0.087,1.708,0.261
		c0.571,0.182,1.119,0.394,1.628,0.635l0.534,0.251l0.038-0.088l-1.441-4.13C25.256,22.815,24.439,22.725,23.597,22.725z"/>
</g>
</svg>
