<?xml version="1.0" encoding="utf-8"?>
<!-- Generator: Adobe Illustrator 16.0.4, SVG Export Plug-In . SVG Version: 6.00 Build 0)  -->
<!DOCTYPE svg PUBLIC "-//W3C//DTD SVG 1.1//EN" "http://www.w3.org/Graphics/SVG/1.1/DTD/svg11.dtd">
<svg version="1.1" id="Layer_1" xmlns="http://www.w3.org/2000/svg" xmlns:xlink="http://www.w3.org/1999/xlink" x="0px" y="0px"
	viewBox="0 0 56 56" enable-background="new 0 0 56 56" xml:space="preserve">
<path fill="#272626" d="M56,52c0,2.2-1.8,4-4,4H4c-2.2,0-4-1.8-4-4V4c0-2.2,1.8-4,4-4h48c2.2,0,4,1.8,4,4V52z"/>
<g>
	<rect x="8.657" y="21.281" fill="#FFFFFF" width="8.29" height="26.719"/>
	<ellipse fill="#FFFFFF" cx="12.806" cy="12.814" rx="4.806" ry="4.814"/>
	<path fill="#FFFFFF" d="M38.059,20.616c-3.21-0.119-6.225,1.539-7.846,4.316h-0.111v-3.651h-7.95v26.718h8.282V34.782
		c0-3.485,0.66-6.861,4.974-6.861c4.252,0,4.308,3.988,4.308,7.086V48h8.282L48,33.343C48,26.147,46.452,20.616,38.059,20.616z"/>
</g>
</svg>
