<svg width="32" height="32" viewBox="0 0 32 32" fill="none" xmlns="http://www.w3.org/2000/svg">
<path d="M29.7143 0H2.28571C1.02857 0 0 1.02857 0 2.28571V29.7143C0 30.9714 1.02857 32 2.28571 32H29.7143C30.9714 32 32 30.9714 32 29.7143V2.28571C32 1.02857 30.9714 0 29.7143 0ZM9.68343 27.4286H4.94686V12.1606H9.68343V27.4286ZM7.31771 10.0731C5.80057 10.0731 4.57143 8.84171 4.57143 7.32229C4.57143 5.80286 5.80057 4.57143 7.31771 4.57143C8.83486 4.57143 10.0646 5.80286 10.0646 7.32229C10.0646 8.84171 8.83429 10.0731 7.31771 10.0731ZM27.4274 27.4286H22.6949V20.004C22.6949 18.2337 22.6629 15.9549 20.2331 15.9549C17.768 15.9549 17.3903 17.884 17.3903 19.8754V27.428H12.6577V12.1606H17.2006V14.2469H17.264C18.1903 12.66 19.9137 11.7126 21.7474 11.7806C26.544 11.7806 27.428 14.9411 27.428 19.0531L27.4274 27.4286Z" fill="white"/>
</svg>
