<svg width="53" height="64" viewBox="0 0 53 64" fill="none" xmlns="http://www.w3.org/2000/svg">
<path fill-rule="evenodd" clip-rule="evenodd" d="M14.8006 20.2318C14.8006 26.4845 19.9571 31.5713 26.2952 31.5713C32.6333 31.5713 37.7898 26.4845 37.7898 20.2318C37.7898 13.9791 32.6333 8.89222 26.2952 8.89222C19.9571 8.89222 14.8006 13.9791 14.8006 20.2318ZM23.257 2.31172L23.9089 0.883882C22.4498 0.883882 20.6152 1.20344 20.6152 1.59776C20.6152 1.99199 21.7981 2.31172 23.257 2.31172ZM28.2075 0.855386H24.7082L24.1934 2.28313H28.7221L28.2075 0.855386ZM29.5897 2.31172C31.0487 2.31172 32.2315 1.99199 32.2315 1.59776C32.2315 1.20344 30.3969 0.883882 28.9379 0.883882L29.5897 2.31172ZM6.59269 20.1384L8.12819 20.6461V16.1786L6.59269 16.6863V20.1384ZM6.58456 20.8035C6.58456 22.2429 6.90848 23.9292 7.3081 23.9292C7.70772 23.9292 8.03191 22.8858 8.03191 21.4465L6.58456 20.8035ZM8.03191 15.446C8.03191 14.0065 7.70772 12.9634 7.3081 12.9634C6.90848 12.9634 6.58456 14.6496 6.58456 16.089L8.03191 15.446ZM45.7468 16.7542L44.2114 16.2464V20.7139L45.7468 20.2063V16.7542ZM45.7549 16.1138C45.7596 13.732 45.431 12.9634 45.0313 12.9634C44.6316 12.9634 44.2193 14.0316 44.2193 15.4708L45.7549 16.1138ZM44.2193 21.4714C44.2193 22.9108 44.5434 23.9293 44.9431 23.9293C45.3428 23.9293 45.7549 22.2677 45.7549 20.8283L44.2193 21.4714ZM51.1135 34.5901C51.1332 34.5893 51.1526 34.5883 51.1728 34.5882C53.4063 34.5752 53.015 36.1397 52.8989 36.406C52.5984 37.0967 52.306 37.0964 52.306 37.0964C48.2166 33.415 35.1863 34.6266 26.365 36.8383C6.1776 41.8999 0.00989687 36.6118 0.00989687 36.6118L0.00972021 36.6117C-0.0248181 36.5656 0.0436402 35.824 0.0436402 35.824C0.0436402 35.5515 0.543607 34.4456 1.82294 34.4456C2.83745 34.4456 3.32628 35.3306 3.32628 35.3306C3.32628 32.1079 10.1772 29.5792 10.1772 29.5792L9.68045 25.5497L9.34929 24.9507C9.34929 24.9507 9.52569 24.9507 8.69766 24.842C8.64897 24.8356 8.60092 24.8296 8.55346 24.8236C7.79406 24.7286 7.18689 24.6526 6.58614 23.2602C5.99801 21.8965 6.12415 15.6547 6.37961 14.2238C6.7038 12.4091 7.81468 12.3724 7.81468 12.3724H9.8444C9.8444 12.3724 10.2324 11.0111 12.109 7.96188C13.9857 4.91267 18.1806 3.22462 18.1806 3.22462C18.1806 3.22462 18.3994 2.21943 19.2595 1.25424C19.9968 0.426729 21.108 0.229699 21.108 0.229699C21.108 0.229699 23.8214 0.00809479 26.4965 0.00809479C29.2021 0.00809479 31.2696 0.27083 31.6163 0.31658C33.6723 0.587943 34.4099 3.22462 34.4099 3.22462C34.4099 3.22462 38.6049 4.91267 40.4813 7.96188C42.3581 11.0111 42.7462 12.3724 42.7462 12.3724H44.5993C44.5993 12.3724 45.9655 12.3801 46.0345 14.2238C46.0886 15.6758 46.2421 21.6785 45.8185 23.2311C45.4261 24.6689 44.9447 24.7303 44.1838 24.8272L44.1833 24.8273C44.146 24.832 44.108 24.8369 44.0692 24.842L43.2412 24.9507L42.9102 25.5497L42.4133 29.5792C42.4133 29.5792 46.2459 29.1787 49.8634 33.0956C50.3877 33.6634 50.7966 34.1584 51.1135 34.5901ZM32.8215 23.466C32.8215 23.466 34.7441 22.5426 34.7649 20.5199C34.7859 18.4972 33.5444 16.617 32.837 16.6101C32.13 16.6029 30.8131 16.6198 30.8131 16.6198L30.8166 23.6571L32.8215 23.466ZM22.8797 23.8129C22.8797 23.8129 24.7982 24.0727 26.4343 24.0727C28.0003 24.0727 29.9089 23.8083 29.9089 23.8083L29.9046 16.6423C29.9046 16.6423 28.5991 17.1109 26.4332 17.1109C24.2672 17.1109 22.9002 16.647 22.9002 16.647L22.8797 23.8129ZM26.125 28.5101C28.1763 28.5309 29.8739 27.3064 29.8808 26.6089C29.8881 25.9118 29.871 24.7677 29.871 24.7677C29.871 24.7677 27.908 25.012 26.3414 25.012C24.7746 25.012 22.9177 24.7712 22.9177 24.7712L22.9285 26.5936C22.9285 26.5936 24.074 28.4896 26.125 28.5101ZM18.0272 20.5083C18.0479 22.5309 19.9705 23.3255 19.9705 23.3255L21.9753 23.6712L21.9536 16.6081C21.9536 16.6081 20.6621 16.5911 19.9549 16.5983C19.2477 16.6052 18.0061 18.4854 18.0272 20.5083ZM26.6492 12.0192C24.5978 11.9986 22.9263 13.2229 22.9193 13.9206C22.912 14.6177 22.9292 15.7366 22.9292 15.7366C22.9292 15.7366 24.7291 16.1384 26.4343 16.1384C28.1393 16.1384 29.8565 15.7582 29.8565 15.7582L29.8456 13.9357C29.8456 13.9357 28.7002 12.0397 26.6492 12.0192ZM16.4408 20.2666C16.4408 14.8468 20.896 10.4533 26.3917 10.4533C31.8876 10.4533 36.3428 14.8468 36.3428 20.2666C36.3428 25.6863 31.8876 30.08 26.3917 30.08C20.896 30.08 16.4408 25.6863 16.4408 20.2666ZM52.5662 61.5863C51.6585 60.7832 50.4779 60.3526 49.3077 60.0486C47.7565 59.6457 46.1435 59.4762 44.5441 59.3839C40.7667 59.1659 36.9503 59.4316 33.2035 59.905C31.5406 60.1152 29.8835 60.3788 28.2431 60.7173C27.252 60.9218 26.269 61.1577 25.2859 61.3936L25.2855 61.3937C24.1658 61.6624 23.0459 61.9311 21.9141 62.1535C17.9342 62.9355 13.8501 63.4184 9.7839 63.2471C7.45707 63.1491 5.09932 62.8277 2.90212 62.0534C2.00484 61.7373 1.08397 61.3437 0.327891 60.7671C0.309866 60.7533 0.299705 60.7451 0.292283 60.7389L0.285969 60.7327C0.282728 60.7295 0.279502 60.7263 0.276113 60.7234C0.274346 60.7204 0.271607 60.7172 0.226279 60.6849L0.225219 60.6842L0.224159 60.6834C0.18157 60.6547 0.326036 60.9427 0.341763 60.9672L0.372675 61.0158C0.455346 61.1463 0.550623 61.2967 0.67505 61.3852C0.60354 61.3343 0.685271 61.397 0.735074 61.4352L0.763409 61.457C0.855655 61.5286 0.951877 61.5952 1.04951 61.6597C1.43882 61.9171 1.85728 62.1328 2.28335 62.3267C4.0081 63.1114 5.90975 63.5181 7.78992 63.7546C11.269 64.1922 14.8194 63.9968 18.285 63.5439C20.7882 63.2167 23.2673 62.7277 25.7195 62.1442L26.1466 62.0423C27.6525 61.683 29.1489 61.326 30.6793 61.0636C34.3483 60.4348 38.0845 60.0781 41.8104 60.0307C43.6118 60.0079 45.4193 60.0692 47.208 60.2863C48.6713 60.464 50.1555 60.7485 51.5054 61.3416C52.0239 61.5694 52.5246 61.8568 52.9464 62.2302C53.0746 62.3434 52.9349 62.091 52.9184 62.0631C52.8223 61.9005 52.7104 61.7141 52.5662 61.5863ZM39.1792 44.7505C38.9965 44.7911 38.9052 44.8118 38.7224 44.8542V45.6532C39.5915 45.5842 40.4626 45.5416 41.3344 45.5292V44.7302L41.323 44.7279L41.3227 44.7278C41.2048 44.7031 41.1421 44.69 41.0205 44.6656C40.6636 44.5894 40.5494 44.2024 40.5494 43.5575V38.7065L40.5781 38.7054C41.4187 40.9836 42.2514 43.2646 43.0757 45.5485C43.7379 45.573 44.069 45.5932 44.7313 45.6531V38.8112C44.7313 38.1522 44.9026 37.7602 45.2024 37.7358C45.3795 37.7266 45.4679 37.7225 45.6449 37.7161V36.9172C44.7353 36.8067 43.8205 36.7385 42.9045 36.7101V37.509C43.0871 37.5429 43.1786 37.5605 43.3612 37.5968C43.6467 37.666 43.818 38.0837 43.818 38.7425V41.7851L43.8036 41.7843C43.1806 40.0855 42.5526 38.3886 41.9195 36.6933C40.8527 36.691 39.7858 36.7359 38.7224 36.8206V37.6196C38.9052 37.6333 38.9965 37.6406 39.1792 37.656C39.4647 37.6925 39.6361 38.0898 39.6361 38.7489C39.6359 40.0452 39.6359 41.3416 39.636 42.6379L39.636 43.5997C39.636 44.2447 39.5217 44.6569 39.1792 44.7505ZM34.1439 38.1686C33.9621 38.2258 33.871 38.255 33.6891 38.3137C33.4048 38.4175 33.2341 38.8542 33.2341 39.5136V42.5015C33.2358 42.591 33.2351 42.6963 33.2343 42.8128C33.228 43.7976 33.2166 45.5785 34.5562 45.3277C35.6383 45.1249 35.8591 43.8484 35.8213 42.9277V39.112C35.8213 38.579 35.7361 38.0562 35.3381 38.0569C35.1618 38.0539 35.0737 38.0528 34.8974 38.0512V37.2517C35.8087 37.1143 36.7235 36.9982 37.6408 36.9066V37.7061C37.4588 37.7523 37.368 37.7759 37.186 37.8238C36.8022 37.9215 36.7169 38.4657 36.7169 38.999V42.576C36.743 44.2145 36.294 45.9401 34.4567 46.2408C32.2563 46.6011 31.5912 45.0561 31.628 43.1327V39.8082C31.628 39.1488 31.4574 38.7747 31.1731 38.7744C30.9911 38.782 30.9003 38.786 30.7184 38.7943V37.9948C31.8564 37.7666 32.9979 37.5547 34.1439 37.369V38.1686ZM23.3633 39.7043V43.2067L23.4515 43.1882V43.2067L23.5399 43.1882V43.2067C23.8745 43.137 24.0418 43.1017 24.3764 43.0307V42.2494C24.3764 41.4261 24.5891 40.4742 25.1988 40.343L25.2018 40.3426L25.2063 40.3419C25.5745 40.4304 25.6177 41.106 25.6177 41.5682V46.0336C25.6177 46.6753 25.5043 47.1049 25.1499 47.2508C24.9684 47.3179 24.8775 47.3513 24.6961 47.4179V48.2132L24.7844 48.1943V48.2132L24.8726 48.1943V48.2132C25.4321 48.0931 25.9915 47.972 26.5508 47.8509L26.5521 47.8506C27.1359 47.7241 27.7198 47.5977 28.304 47.4724V46.6771L28.2157 46.682V46.6771L28.1274 46.682V46.6771L27.784 46.6963C27.4794 46.6504 27.3825 46.2818 27.3825 45.6894V41.2242C27.3825 40.694 27.439 39.858 27.9777 39.7422C27.9823 39.7412 27.9867 39.7404 27.9911 39.7397C27.9939 39.7392 27.9966 39.7388 27.9994 39.7384L28.0081 39.737C28.4598 39.8223 28.6236 40.5746 28.6236 41.2967V42.0781L28.7119 42.0592V42.0781L28.8001 42.0592V42.0781C29.1347 42.0072 29.3021 41.9719 29.6367 41.9022V38.3999L29.5484 38.4188V38.3999L29.4602 38.4188V38.3999C28.4305 38.6167 27.4019 38.8384 26.3733 39.0602L26.3708 39.0607L26.3706 39.0608L26.3706 39.0608L26.3705 39.0608L26.3705 39.0608L26.3704 39.0608L26.3704 39.0608L26.3704 39.0608L26.3703 39.0608L26.3703 39.0608L26.3702 39.0608C25.3683 39.2769 24.3663 39.4929 23.3633 39.7043ZM0.672923 47.2365C0.4902 47.1892 0.39906 47.1648 0.216336 47.1134V47.9165C1.0684 48.2872 1.94062 48.6125 2.8283 48.8899V48.0868C2.70269 48.0194 2.63989 47.9853 2.51428 47.9161C2.15754 47.715 2.04331 47.2781 2.04331 46.63V41.7549L2.072 41.7647C2.89226 44.3031 3.72548 46.8372 4.56937 49.368C5.23169 49.5256 5.56303 49.5927 6.22534 49.7066V42.8307C6.22534 42.1684 6.39652 41.7905 6.69632 41.7804C6.87336 41.7795 6.96175 41.7782 7.13878 41.7745V40.9714C6.21699 40.8446 5.30178 40.6711 4.39837 40.45V41.2532C4.58101 41.3261 4.67241 41.3617 4.85505 41.4313C5.14055 41.5522 5.31181 41.9952 5.31181 42.6575V45.7151L5.29751 45.7122C4.663 43.8731 4.0355 42.0317 3.41351 40.1885C2.32357 39.876 1.25494 39.4916 0.216336 39.0399V39.8429C0.39906 39.9506 0.4902 40.0034 0.672923 40.1069C0.958424 40.2814 1.12987 40.7554 1.12987 41.4177V46.2928C1.12987 46.9409 1.01545 47.3074 0.672923 47.2365ZM8.89483 48.9703C8.71171 48.9839 8.61988 48.9901 8.43675 49.0008V49.8005C10.3204 49.946 12.1751 49.9533 14.0612 49.8509V46.6796C13.7007 46.7037 13.5204 46.7139 13.1597 46.7301V47.4176C13.1597 48.2877 12.9163 49.0269 11.9146 49.0392C11.1847 49.0481 10.97 48.631 10.97 48.0698V45.7684C11.5367 45.7768 11.8201 45.7749 12.3868 45.7606V44.7646C11.8201 44.7788 11.5367 44.7804 10.97 44.7721V42.9482C10.97 42.3025 11.1847 41.9755 11.9146 41.9667C12.5872 41.9587 13.1597 42.4782 13.1597 43.5307V44.12C13.5204 44.1039 13.7007 44.0937 14.0612 44.0695V41.0104C12.1751 41.1127 10.3204 41.1052 8.43675 40.9599V41.7597C8.61988 41.8053 8.71171 41.8273 8.89483 41.8698C9.1811 41.9486 9.35283 42.3658 9.35283 43.0253V47.8804C9.35283 48.5259 9.23829 48.9414 8.89483 48.9703ZM19.4932 43.9939C19.9619 43.9144 20.459 43.3375 20.459 42.6699C20.459 41.9165 20.0912 41.6113 19.69 41.5908C19.6539 41.5927 19.6176 41.5959 19.5816 41.6019C19.2577 41.6569 19.0957 41.6834 18.7718 41.7346C18.3598 41.7999 18.0899 42.0199 18.0899 42.6735V44.218C18.6288 44.1379 18.9269 44.0898 19.4932 43.9939ZM15.5755 48.9141C15.7573 48.8678 15.8483 48.8441 16.0301 48.7961C16.3711 48.6888 16.4847 48.2707 16.4847 47.6311V42.8196C16.4847 42.166 16.3143 41.7837 16.0301 41.7594C15.8483 41.7519 15.7573 41.7475 15.5755 41.7381V40.9457C16.9178 40.7946 18.1602 40.608 19.4932 40.3921C19.7479 40.3392 19.9917 40.3159 20.2217 40.3205C21.4615 40.3061 22.317 41.087 22.2805 42.4794C22.2396 44.0377 20.94 45.1183 19.4253 45.3553C18.8911 45.4448 18.6241 45.4872 18.0899 45.5661V47.4156C18.0899 48.054 18.2032 48.441 18.5566 48.4568C18.6855 48.4565 18.7744 48.456 18.9249 48.4545V48.4554L19.0133 48.4545V49.2473C17.8721 49.4322 16.8145 49.5889 15.6639 49.7066V49.6971L15.6255 49.7012L15.5755 49.7066V48.9141ZM46.7266 45.1842C46.9097 45.1864 47.0012 45.1885 47.1843 45.1941C47.5278 45.201 47.6425 44.8037 47.6425 44.1564V39.287C47.6425 38.6254 47.4706 38.1818 47.1843 38.0728C47.0012 38.0111 46.9097 37.9807 46.7266 37.9221V37.1199C48.6703 37.4823 50.5074 38.0012 52.351 38.7069V41.7749C51.9904 41.6279 51.8101 41.5583 51.4495 41.4267V40.8357C51.4594 40.0017 51.0372 39.0856 50.2041 38.8121C49.4914 38.5784 49.2595 38.8779 49.2595 39.5252V41.3547C49.8262 41.5064 50.1099 41.5908 50.6767 41.7776V42.7766C50.1099 42.5899 49.8262 42.5057 49.2595 42.3538V44.6621C49.2595 45.225 49.4742 45.68 50.2041 45.9053C51.2059 46.2144 51.4495 45.6066 51.4495 44.7341V44.0445C51.8101 44.1763 51.9904 44.2457 52.351 44.3927V47.5732C50.5074 46.8675 48.6703 46.3487 46.7266 45.9864V45.1842ZM3.57022 59.2052C2.70476 58.9551 1.97948 58.324 1.56706 57.5272C1.34294 57.0943 1.20311 56.7312 1.13302 56.3268C0.852849 56.2153 0.712849 56.1573 0.432674 56.0361V59.0353C0.712849 59.1565 0.852849 59.2145 1.13302 59.326C1.25908 59.125 1.4132 58.9066 1.63741 58.9902C1.84972 59.0694 2.09078 59.2679 2.38644 59.5114L2.43557 59.5518C2.74347 59.805 3.22824 60.137 3.75232 60.2885C5.16078 60.6949 6.27974 59.5811 6.27346 58.2119C6.26571 56.4953 5.03482 55.3992 3.62618 54.6455C2.93281 54.2745 2.06064 53.6922 2.07136 52.8005C2.07781 52.2631 2.43557 51.7957 3.21996 52.0306C3.82232 52.2107 4.50838 52.8423 4.76083 53.2206C4.96996 53.5342 5.13899 53.9613 5.23697 54.4005C5.51157 54.4588 5.64878 54.486 5.92338 54.5369V51.9142C5.64878 51.8635 5.51157 51.8363 5.23697 51.7779C5.13899 51.8548 5.02689 51.9423 4.85881 51.9037C4.65007 51.8563 4.44106 51.7374 4.21897 51.6112L4.21469 51.6087C3.94872 51.4575 3.47659 51.2528 3.0518 51.1147C1.89701 50.7393 0.502848 51.1763 0.530569 52.5908C0.556983 53.9352 1.19065 55.1539 2.29548 55.9751C2.73257 56.303 2.95103 56.4614 3.38811 56.7673L3.40719 56.781C3.87043 57.1119 4.59267 57.6279 4.59267 58.4121C4.59267 58.9702 4.1548 59.3739 3.57022 59.2052ZM9.26805 55.8702C8.93562 55.8507 8.76924 55.8386 8.43681 55.8099V52.299C10.4686 52.4371 12.4633 52.4141 14.4939 52.2666L14.4938 53.2234C14.4937 54.0747 14.4935 54.9261 14.4938 55.7774C14.1614 55.806 13.995 55.8188 13.6626 55.8407V55.0572C13.6626 54.2321 13.4514 53.341 12.8456 53.3688C12.3104 53.3935 12.2542 54.2166 12.2542 54.7481L12.2542 56.6624L12.2542 59.2242C12.2542 59.8675 12.3671 60.2713 12.7333 60.3256C12.908 60.3459 12.9951 60.3557 13.1698 60.3742V61.1716C12.0347 61.2333 10.8968 61.2451 9.7609 61.1966V60.3994C9.94113 60.3791 10.0315 60.3684 10.2118 60.3457C10.564 60.2859 10.6765 59.8803 10.6765 59.2369V54.7608C10.6765 54.2294 10.6203 53.4076 10.085 53.3899C9.47932 53.3701 9.26805 54.2618 9.26805 55.0869V55.8702ZM20.8362 52.1235C21.0125 52.1179 21.1004 52.1151 21.2768 52.1089C21.6748 52.0874 21.76 52.6012 21.76 53.1328C21.7603 54.401 21.7603 55.6692 21.76 56.9374C21.7966 57.8724 21.5804 59.1516 20.4951 59.3916C19.151 59.6888 19.1652 57.885 19.1729 56.906C19.1739 56.7881 19.1747 56.6821 19.173 56.5933L19.1729 53.6136C19.1729 52.9561 19.3436 52.5217 19.6279 52.4155C19.8098 52.3554 19.9008 52.3249 20.0828 52.2637V51.4666C18.9454 51.6741 17.8036 51.8589 16.6572 52.0111V52.8082C16.839 52.8123 16.93 52.8138 17.1119 52.8164C17.3962 52.8326 17.5669 53.2125 17.5669 53.87C17.5671 54.6032 17.567 55.3363 17.567 56.0694V56.0801L17.5669 57.1851C17.5314 59.0662 18.1817 60.7341 20.3956 60.3053C22.2325 59.9494 22.6801 58.157 22.6555 56.5186L22.6555 55.6244V55.6075C22.6556 54.7222 22.6556 53.837 22.6553 52.9517C22.6553 52.4202 22.741 51.8715 23.1247 51.7356L23.2494 51.6904L23.2498 51.6903L23.253 51.6892C23.361 51.65 23.4456 51.6194 23.5796 51.5705V50.7732C22.667 50.9659 21.7526 51.1514 20.8362 51.3262V52.1235ZM28.8835 57.5104C30.1917 57.0653 30.3442 54.8529 30.3325 53.7422C30.3316 53.6587 30.3337 53.5512 30.3362 53.4267C30.355 52.4662 30.3938 50.4875 29.2352 50.5791C28.8526 50.6606 28.6613 50.7018 28.2786 50.7848C27.8284 50.8827 27.8001 51.3116 27.8001 51.9591V56.7597C27.8001 57.4074 27.941 57.7144 28.2364 57.6501C28.4952 57.5939 28.6246 57.5661 28.8835 57.5104ZM25.3102 50.4374C26.6322 50.1464 27.954 49.8555 29.2773 49.5707C31.7479 48.9964 32.1939 51.7461 32.2315 53.5088C32.2758 55.5813 31.0058 58.0516 28.7849 58.545C27.8868 58.7388 26.9895 58.9365 26.0923 59.1343L26.0918 59.1344L26.0912 59.1345L25.3102 59.3066L25.3103 58.504L25.7604 58.3349C26.0981 58.1902 26.2105 57.757 26.2105 57.1093L26.2106 52.2386C26.2106 51.5768 26.0418 51.2058 25.7604 51.2112L25.6354 51.2192L25.6346 51.2193C25.5272 51.2262 25.4433 51.2315 25.3102 51.2398V50.4374ZM34.4207 56.4357C34.2377 56.4921 34.1464 56.5205 33.9633 56.5782L33.9633 57.3866C35.1122 57.2017 36.2659 57.0465 37.4243 56.9321L37.4245 56.1237C37.2413 56.1134 37.1497 56.1087 36.9666 56.1C36.6091 56.0678 36.4947 55.6712 36.4947 55.0189V50.1125C36.4947 49.4459 36.6662 49.0141 36.9522 48.9264C37.1353 48.8781 37.2268 48.8547 37.4099 48.8081V47.9999C36.2565 48.1144 35.1073 48.2688 33.9633 48.4531V49.2613C34.1463 49.2603 34.2377 49.2599 34.4207 49.2603C34.7068 49.273 34.8786 49.6597 34.8786 50.326V55.2323C34.8786 55.8848 34.764 56.3121 34.4207 56.4357ZM42.0827 55.8545C42.9128 55.8685 43.0817 54.9251 43.0817 53.9778V50.2716C43.0817 49.4913 42.9128 48.7068 42.0827 48.6927C41.2384 48.6785 41.0837 49.4569 41.0837 50.2371C41.0836 51.0416 41.0836 51.8461 41.0837 52.6506V52.708L41.0837 53.9435C41.0837 54.9607 41.2384 55.8403 42.0827 55.8545ZM39.1699 51.0066C39.1745 49.3961 40.3361 47.7616 42.0827 47.7869C43.8654 47.8128 44.9848 49.4806 44.9955 51.1208V53.6845C45.0231 55.3458 43.8109 56.7734 42.0827 56.7462C40.3342 56.7185 39.1198 55.3888 39.1559 53.6688L39.1619 52.5205L39.1699 51.0066ZM49.8637 57.0252C49.0375 56.7709 48.2878 56.2332 47.8608 55.4796C47.6363 55.0836 47.4969 54.7471 47.4268 54.3567C47.1466 54.2998 47.0067 54.2734 46.7266 54.2241V57.2184C47.0067 57.2675 47.1466 57.2941 47.4268 57.3511C47.5529 57.1259 47.707 56.8794 47.9311 56.9295C48.1552 56.9799 48.411 57.1637 48.7291 57.4005C49.0368 57.6294 49.527 57.9377 50.0459 58.1127C51.3221 58.5434 52.5961 57.8549 52.5669 56.4293C52.5313 54.6929 51.3717 53.2936 49.9198 52.4745C49.263 52.1039 48.3507 51.5698 48.3651 50.694C48.3738 50.1597 48.7293 49.6295 49.5136 49.8589C50.1159 50.0351 50.8019 50.7329 51.0543 51.144C51.2636 51.4848 51.4326 51.9391 51.5306 52.3949C51.8051 52.5011 51.9422 52.5565 52.2167 52.672V50.0537C51.9422 49.9381 51.805 49.8828 51.5305 49.7766L51.5302 49.7768C51.4322 49.8364 51.3201 49.9046 51.1521 49.8428C50.9619 49.7727 50.7713 49.6481 50.5708 49.517L50.5708 49.517L50.5079 49.4759C50.2419 49.3029 49.773 49.0745 49.3458 48.9469C48.0587 48.5626 46.8214 49.3988 46.8244 50.7597C46.8272 52.0561 47.4796 53.1408 48.5892 53.8414C49.0263 54.1297 49.2447 54.2789 49.6817 54.5883C50.1439 54.9219 50.8861 55.5122 50.8861 56.306C50.8861 56.8632 50.4516 57.2062 49.8637 57.0252Z" fill="black"/>
</svg>
