<svg width="53" height="64" viewBox="0 0 53 64" fill="none" xmlns="http://www.w3.org/2000/svg">
<path fill-rule="evenodd" clip-rule="evenodd" d="M14.8006 20.232C14.8006 26.4847 19.9571 31.5715 26.2953 31.5715C32.6334 31.5715 37.7898 26.4847 37.7898 20.232C37.7898 13.9793 32.6334 8.89243 26.2953 8.89243C19.9571 8.89243 14.8006 13.9793 14.8006 20.232ZM23.257 2.31192L23.9089 0.884088C22.4498 0.884088 20.6152 1.20364 20.6152 1.59796C20.6152 1.9922 21.7981 2.31192 23.257 2.31192ZM28.2075 0.855592H24.7082L24.1935 2.28334H28.7221L28.2075 0.855592ZM29.5897 2.31192C31.0487 2.31192 32.2315 1.9922 32.2315 1.59796C32.2315 1.20364 30.3969 0.884088 28.9379 0.884088L29.5897 2.31192ZM6.5927 20.1386L8.1282 20.6463V16.1788L6.5927 16.6865V20.1386ZM6.58458 20.8037C6.58458 22.2431 6.9085 23.9294 7.30812 23.9294C7.70774 23.9294 8.03192 22.886 8.03192 21.4467L6.58458 20.8037ZM8.03192 15.4462C8.03192 14.0067 7.70774 12.9636 7.30812 12.9636C6.9085 12.9636 6.58458 14.6498 6.58458 16.0892L8.03192 15.4462ZM45.7468 16.7544L44.2114 16.2466V20.7141L45.7468 20.2065V16.7544ZM45.7549 16.114C45.7596 13.7323 45.431 12.9637 45.0313 12.9637C44.6317 12.9637 44.2193 14.0318 44.2193 15.471L45.7549 16.114ZM44.2193 21.4716C44.2193 22.911 44.5434 23.9295 44.9431 23.9295C45.3428 23.9295 45.7549 22.2679 45.7549 20.8285L44.2193 21.4716ZM51.1135 34.5903C51.1332 34.5896 51.1526 34.5885 51.1728 34.5884C53.4063 34.5754 53.015 36.1399 52.899 36.4062C52.5984 37.0969 52.306 37.0966 52.306 37.0966C48.2166 33.4152 35.1864 34.6268 26.365 36.8385C6.17761 41.9001 0.00991213 36.612 0.00991213 36.612L0.00973547 36.6119C-0.0248029 36.5658 0.0436555 35.8242 0.0436555 35.8242C0.0436555 35.5517 0.543622 34.4458 1.82295 34.4458C2.83746 34.4458 3.3263 35.3308 3.3263 35.3308C3.3263 32.1082 10.1773 29.5794 10.1773 29.5794L9.68047 25.5499L9.34931 24.9509C9.34931 24.9509 9.52571 24.9509 8.69767 24.8422C8.64899 24.8358 8.60093 24.8298 8.55347 24.8238C7.79407 24.7288 7.1869 24.6529 6.58615 23.2604C5.99803 21.8968 6.12417 15.6549 6.37963 14.224C6.70381 12.4093 7.81469 12.3727 7.81469 12.3727H9.84442C9.84442 12.3727 10.2325 11.0113 12.109 7.96209C13.9857 4.91288 18.1806 3.22483 18.1806 3.22483C18.1806 3.22483 18.3994 2.21964 19.2595 1.25444C19.9968 0.426935 21.108 0.229905 21.108 0.229905C21.108 0.229905 23.8214 0.00830078 26.4965 0.00830078C29.2021 0.00830078 31.2697 0.271036 31.6163 0.316786C33.6723 0.588149 34.4099 3.22483 34.4099 3.22483C34.4099 3.22483 38.6049 4.91288 40.4813 7.96209C42.3581 11.0113 42.7462 12.3727 42.7462 12.3727H44.5993C44.5993 12.3727 45.9655 12.3803 46.0345 14.224C46.0886 15.676 46.2421 21.6787 45.8185 23.2313C45.4261 24.6691 44.9447 24.7305 44.1838 24.8274L44.1833 24.8275C44.146 24.8322 44.108 24.8371 44.0693 24.8422L43.2412 24.9509L42.9102 25.5499L42.4134 29.5794C42.4134 29.5794 46.2459 29.1789 49.8634 33.0958C50.3877 33.6636 50.7966 34.1586 51.1135 34.5903ZM32.8215 23.4662C32.8215 23.4662 34.7441 22.5428 34.7649 20.5201C34.7859 18.4974 33.5445 16.6172 32.837 16.6103C32.13 16.6031 30.8132 16.62 30.8132 16.62L30.8166 23.6573L32.8215 23.4662ZM22.8797 23.8131C22.8797 23.8131 24.7982 24.0729 26.4343 24.0729C28.0003 24.0729 29.9089 23.8085 29.9089 23.8085L29.9046 16.6425C29.9046 16.6425 28.5991 17.1111 26.4332 17.1111C24.2672 17.1111 22.9003 16.6472 22.9003 16.6472L22.8797 23.8131ZM26.125 28.5103C28.1764 28.5311 29.8739 27.3066 29.8808 26.6091C29.8881 25.912 29.871 24.7679 29.871 24.7679C29.871 24.7679 27.9081 25.0122 26.3414 25.0122C24.7746 25.0122 22.9177 24.7714 22.9177 24.7714L22.9285 26.5938C22.9285 26.5938 24.074 28.4898 26.125 28.5103ZM18.0272 20.5085C18.048 22.5311 19.9705 23.3257 19.9705 23.3257L21.9754 23.6714L21.9536 16.6083C21.9536 16.6083 20.6621 16.5913 19.955 16.5985C19.2477 16.6054 18.0062 18.4856 18.0272 20.5085ZM26.6492 12.0194C24.5978 11.9988 22.9263 13.2231 22.9193 13.9208C22.912 14.6179 22.9292 15.7368 22.9292 15.7368C22.9292 15.7368 24.7291 16.1386 26.4343 16.1386C28.1393 16.1386 29.8565 15.7584 29.8565 15.7584L29.8457 13.9359C29.8457 13.9359 28.7003 12.0399 26.6492 12.0194ZM16.4408 20.2668C16.4408 14.8471 20.896 10.4535 26.3917 10.4535C31.8876 10.4535 36.3428 14.8471 36.3428 20.2668C36.3428 25.6865 31.8876 30.0802 26.3917 30.0802C20.896 30.0802 16.4408 25.6865 16.4408 20.2668ZM52.5662 61.5865C51.6585 60.7834 50.4779 60.3528 49.3077 60.0488C47.7565 59.6459 46.1435 59.4764 44.5441 59.3841C40.7667 59.1661 36.9504 59.4318 33.2035 59.9052C31.5406 60.1154 29.8836 60.379 28.2431 60.7175C27.2521 60.922 26.269 61.1579 25.2859 61.3938L25.2856 61.3939C24.1658 61.6626 23.0459 61.9313 21.9141 62.1537C17.9342 62.9357 13.8502 63.4186 9.78391 63.2473C7.45709 63.1493 5.09934 62.8279 2.90213 62.0536C2.00486 61.7375 1.08399 61.3439 0.327906 60.7673C0.309881 60.7535 0.29972 60.7453 0.292298 60.7391L0.285984 60.7329C0.282743 60.7297 0.279518 60.7265 0.276128 60.7236C0.274361 60.7206 0.271622 60.7174 0.226294 60.6851L0.225234 60.6844L0.224174 60.6836C0.181585 60.655 0.326051 60.9429 0.341779 60.9674L0.37269 61.016C0.455361 61.1465 0.550638 61.2969 0.675066 61.3854C0.603555 61.3345 0.685286 61.3972 0.735089 61.4354L0.763424 61.4572C0.85567 61.5288 0.951892 61.5954 1.04953 61.6599C1.43883 61.9173 1.8573 62.133 2.28336 62.3269C4.00811 63.1116 5.90976 63.5183 7.78993 63.7548C11.269 64.1924 14.8194 63.997 18.285 63.5441C20.7882 63.2169 23.2673 62.7279 25.7195 62.1444L26.1466 62.0425C27.6525 61.6832 29.1489 61.3262 30.6793 61.0638C34.3483 60.435 38.0845 60.0783 41.8104 60.0309C43.6119 60.0081 45.4193 60.0694 47.208 60.2865C48.6713 60.4642 50.1555 60.7487 51.5054 61.3418C52.0239 61.5697 52.5246 61.857 52.9464 62.2304C53.0746 62.3436 52.9349 62.0912 52.9185 62.0633C52.8223 61.9007 52.7105 61.7143 52.5662 61.5865ZM39.1792 44.7507C38.9965 44.7913 38.9052 44.812 38.7225 44.8544V45.6535C39.5915 45.5844 40.4626 45.5418 41.3344 45.5294V44.7304L41.3231 44.7281L41.3227 44.728C41.2048 44.7033 41.1421 44.6902 41.0205 44.6658C40.6636 44.5896 40.5494 44.2026 40.5494 43.5577V38.7067L40.5781 38.7056C41.4187 40.9838 42.2515 43.2648 43.0757 45.5487C43.7379 45.5732 44.069 45.5934 44.7313 45.6533V38.8114C44.7313 38.1524 44.9027 37.7604 45.2024 37.736C45.3795 37.7268 45.4679 37.7227 45.6449 37.7163V36.9174C44.7353 36.8069 43.8205 36.7387 42.9045 36.7103V37.5092C43.0871 37.5431 43.1786 37.5607 43.3612 37.597C43.6467 37.6662 43.8181 38.0839 43.8181 38.7427V41.7853L43.8036 41.7845C43.1806 40.0857 42.5526 38.3888 41.9195 36.6935C40.8527 36.6912 39.7858 36.7361 38.7225 36.8209V37.6198C38.9052 37.6335 38.9965 37.6408 39.1792 37.6562C39.4647 37.6927 39.6362 38.09 39.6362 38.7491C39.6359 40.0454 39.636 41.3418 39.636 42.6381L39.636 43.5999C39.636 44.2449 39.5217 44.6572 39.1792 44.7507ZM34.144 38.1688C33.9621 38.226 33.871 38.2552 33.6891 38.3139C33.4048 38.4177 33.2341 38.8544 33.2341 39.5138V42.5017C33.2358 42.5912 33.2351 42.6965 33.2344 42.813C33.2281 43.7978 33.2166 45.5787 34.5562 45.3279C35.6384 45.1251 35.8591 43.8486 35.8213 42.9279V39.1123C35.8213 38.5792 35.7361 38.0564 35.3381 38.0571C35.1618 38.0541 35.0738 38.053 34.8974 38.0514V37.2519C35.8087 37.1145 36.7235 36.9984 37.6408 36.9068V37.7063C37.4589 37.7525 37.368 37.7761 37.186 37.824C36.8022 37.9217 36.7169 38.4659 36.7169 38.9992V42.5762C36.743 44.2147 36.294 45.9403 34.4567 46.241C32.2563 46.6013 31.5912 45.0563 31.628 43.133V39.8084C31.628 39.149 31.4574 38.7749 31.1731 38.7746C30.9911 38.7822 30.9003 38.7862 30.7184 38.7946V37.995C31.8564 37.7668 32.9979 37.5549 34.144 37.3692V38.1688ZM23.3633 39.7045V43.2069L23.4515 43.1884V43.2069L23.5399 43.1884V43.2069C23.8745 43.1372 24.0418 43.1019 24.3764 43.0309V42.2496C24.3764 41.4263 24.5891 40.4744 25.1988 40.3432L25.2019 40.3428L25.2063 40.3421C25.5745 40.4306 25.6178 41.1063 25.6178 41.5684V46.0338C25.6178 46.6755 25.5044 47.1051 25.1499 47.251C24.9684 47.3181 24.8776 47.3515 24.6961 47.4181V48.2134L24.7844 48.1945V48.2134L24.8726 48.1945V48.2134C25.4322 48.0933 25.9915 47.9722 26.5508 47.8511L26.5521 47.8508C27.136 47.7243 27.7198 47.5979 28.304 47.4726V46.6773L28.2157 46.6822V46.6773L28.1274 46.6822V46.6773L27.784 46.6965C27.4794 46.6506 27.3825 46.282 27.3825 45.6896V41.2244C27.3825 40.6942 27.439 39.8582 27.9778 39.7424C27.9823 39.7414 27.9867 39.7406 27.9912 39.7399C27.9939 39.7394 27.9967 39.739 27.9994 39.7386L28.0081 39.7372C28.4598 39.8225 28.6236 40.5748 28.6236 41.2969V42.0783L28.7119 42.0594V42.0783L28.8001 42.0594V42.0783C29.1347 42.0074 29.3021 41.9721 29.6368 41.9024V38.4001L29.5484 38.419V38.4001L29.4602 38.419V38.4001C28.4305 38.6169 27.4019 38.8386 26.3733 39.0604L26.3708 39.0609L26.3706 39.061L26.3706 39.061L26.3705 39.061L26.3705 39.061L26.3705 39.061L26.3704 39.061L26.3704 39.061L26.3703 39.061L26.3703 39.061L26.3703 39.0611C25.3683 39.2771 24.3663 39.4931 23.3633 39.7045ZM0.672939 47.2367C0.490215 47.1894 0.399075 47.165 0.216351 47.1136V47.9167C1.06841 48.2874 1.94063 48.6127 2.82831 48.8901V48.087C2.70271 48.0196 2.63991 47.9855 2.5143 47.9163C2.15756 47.7152 2.04332 47.2784 2.04332 46.6302V41.7551L2.07201 41.7649C2.89227 44.3033 3.7255 46.8374 4.56939 49.3682C5.2317 49.5258 5.56304 49.5929 6.22536 49.7068V42.8309C6.22536 42.1686 6.39654 41.7907 6.69634 41.7806C6.87338 41.7797 6.96176 41.7785 7.1388 41.7747V40.9716C6.21701 40.8448 5.30179 40.6713 4.39839 40.4502V41.2534C4.58102 41.3263 4.67243 41.3619 4.85506 41.4315C5.14056 41.5524 5.31183 41.9954 5.31183 42.6577V45.7153L5.29753 45.7124C4.66301 43.8733 4.03552 42.0319 3.41353 40.1887C2.32358 39.8763 1.25495 39.4918 0.216351 39.0401V39.8431C0.399075 39.9508 0.490215 40.0036 0.672939 40.1071C0.958439 40.2816 1.12988 40.7556 1.12988 41.418V46.293C1.12988 46.9411 1.01547 47.3076 0.672939 47.2367ZM8.89485 48.9705C8.71172 48.9841 8.61989 48.9903 8.43676 49.001V49.8007C10.3204 49.9462 12.1751 49.9535 14.0613 49.8511V46.6798C13.7007 46.7039 13.5204 46.7141 13.1597 46.7304V47.4178C13.1597 48.2879 12.9163 49.0271 11.9146 49.0394C11.1847 49.0483 10.97 48.6312 10.97 48.07V45.7686C11.5367 45.777 11.8201 45.7751 12.3868 45.7608V44.7648C11.8201 44.779 11.5367 44.7806 10.97 44.7723V42.9484C10.97 42.3027 11.1847 41.9757 11.9146 41.9669C12.5872 41.9589 13.1597 42.4784 13.1597 43.5309V44.1202C13.5204 44.1041 13.7007 44.0939 14.0613 44.0697V41.0106C12.1751 41.113 10.3204 41.1054 8.43676 40.9601V41.7599C8.61989 41.8055 8.71172 41.8275 8.89485 41.87C9.18112 41.9488 9.35285 42.366 9.35285 43.0255V47.8806C9.35285 48.5261 9.2383 48.9417 8.89485 48.9705ZM19.4932 43.9941C19.9619 43.9146 20.4591 43.3377 20.4591 42.6701C20.4591 41.9167 20.0912 41.6115 19.6901 41.591C19.6539 41.5929 19.6177 41.5961 19.5816 41.6021C19.2577 41.6571 19.0957 41.6837 18.7718 41.7348C18.3598 41.8001 18.0899 42.0202 18.0899 42.6737V44.2182C18.6288 44.1381 18.9269 44.09 19.4932 43.9941ZM15.5755 48.9143C15.7573 48.868 15.8484 48.8443 16.0301 48.7963C16.3711 48.689 16.4847 48.271 16.4847 47.6313V42.8198C16.4847 42.1662 16.3143 41.7839 16.0301 41.7596C15.8484 41.7521 15.7573 41.7477 15.5755 41.7383V40.9459C16.9178 40.7948 18.1602 40.6082 19.4932 40.3923C19.7479 40.3394 19.9917 40.3161 20.2217 40.3207C21.4615 40.3063 22.317 41.0872 22.2805 42.4796C22.2396 44.0379 20.94 45.1185 19.4253 45.3555C18.8911 45.445 18.6241 45.4874 18.0899 45.5663V47.4158C18.0899 48.0542 18.2032 48.4412 18.5567 48.457C18.6856 48.4567 18.7744 48.4562 18.9249 48.4547V48.4556L19.0133 48.4547V49.2475C17.8721 49.4324 16.8145 49.5891 15.6639 49.7068V49.6973L15.6255 49.7014L15.5755 49.7068V48.9143ZM46.7266 45.1844C46.9097 45.1866 47.0012 45.1887 47.1843 45.1943C47.5279 45.2012 47.6425 44.804 47.6425 44.1566V39.2872C47.6425 38.6256 47.4706 38.182 47.1843 38.073C47.0012 38.0113 46.9097 37.981 46.7266 37.9224V37.1201C48.6703 37.4825 50.5075 38.0014 52.3511 38.7071V41.7751C51.9904 41.6281 51.8101 41.5585 51.4495 41.4269V40.8359C51.4594 40.0019 51.0373 39.0858 50.2041 38.8123C49.4914 38.5786 49.2595 38.8781 49.2595 39.5254V41.3549C49.8262 41.5066 50.1099 41.591 50.6767 41.7778V42.7769C50.1099 42.5901 49.8262 42.5059 49.2595 42.354V44.6623C49.2595 45.2252 49.4742 45.6802 50.2041 45.9055C51.2059 46.2146 51.4495 45.6068 51.4495 44.7343V44.0447C51.8101 44.1765 51.9904 44.2459 52.3511 44.3929V47.5735C50.5075 46.8677 48.6703 46.3489 46.7266 45.9866V45.1844ZM3.57023 59.2054C2.70478 58.9553 1.97949 58.3242 1.56708 57.5274C1.34295 57.0945 1.20313 56.7314 1.13304 56.327C0.852865 56.2155 0.712864 56.1575 0.432689 56.0364V59.0355C0.712864 59.1567 0.852865 59.2147 1.13304 59.3262C1.25909 59.1252 1.41322 58.9068 1.63743 58.9904C1.84973 59.0696 2.09079 59.2681 2.38646 59.5116L2.43558 59.552C2.74348 59.8052 3.22825 60.1372 3.75234 60.2887C5.1608 60.6951 6.27976 59.5813 6.27348 58.2121C6.26572 56.4955 5.03483 55.3994 3.6262 54.6457C2.93282 54.2747 2.06065 53.6924 2.07137 52.8007C2.07783 52.2633 2.43558 51.7959 3.21997 52.0308C3.82234 52.2109 4.50839 52.8425 4.76085 53.2208C4.96998 53.5344 5.13901 53.9616 5.23699 54.4007C5.51158 54.459 5.6488 54.4862 5.92339 54.5371V51.9144C5.6488 51.8637 5.51158 51.8365 5.23699 51.7781C5.13901 51.855 5.0269 51.9425 4.85883 51.9039C4.65008 51.8565 4.44108 51.7376 4.21899 51.6114L4.21471 51.6089C3.94874 51.4577 3.47661 51.253 3.05181 51.1149C1.89703 50.7395 0.502864 51.1765 0.530585 52.591C0.556998 53.9354 1.19066 55.1541 2.2955 55.9753C2.73258 56.3032 2.95104 56.4616 3.38813 56.7675L3.40721 56.7812C3.87045 57.1121 4.59269 57.6281 4.59269 58.4123C4.59269 58.9704 4.15482 59.3741 3.57023 59.2054ZM9.26806 55.8704C8.93564 55.8509 8.76925 55.8388 8.43683 55.8101V52.2993C10.4686 52.4373 12.4633 52.4143 14.4939 52.2668L14.4938 53.2236C14.4937 54.075 14.4936 54.9263 14.4938 55.7776C14.1614 55.8062 13.995 55.819 13.6626 55.8409V55.0574C13.6626 54.2323 13.4514 53.3412 12.8456 53.369C12.3105 53.3937 12.2543 54.2168 12.2543 54.7483L12.2542 56.6626L12.2542 59.2244C12.2542 59.8677 12.3671 60.2715 12.7333 60.3258C12.908 60.3461 12.9951 60.3559 13.1698 60.3744V61.1718C12.0347 61.2335 10.8968 61.2453 9.76091 61.1968V60.3996C9.94115 60.3793 10.0315 60.3686 10.2118 60.3459C10.564 60.2862 10.6766 59.8805 10.6766 59.2371V54.761C10.6766 54.2296 10.6203 53.4078 10.085 53.3901C9.47933 53.3703 9.26806 54.262 9.26806 55.0871V55.8704ZM20.8362 52.1237C21.0125 52.1181 21.1005 52.1153 21.2768 52.1091C21.6748 52.0876 21.7601 52.6014 21.7601 53.133C21.7603 54.4012 21.7603 55.6694 21.7601 56.9376C21.7966 57.8726 21.5804 59.1518 20.4951 59.3918C19.151 59.689 19.1652 57.8852 19.1729 56.9062C19.1739 56.7883 19.1747 56.6823 19.1731 56.5935L19.173 53.6138C19.173 52.9563 19.3436 52.5219 19.6279 52.4157C19.8098 52.3556 19.9009 52.3251 20.0828 52.2639V51.4669C18.9454 51.6743 17.8036 51.8591 16.6572 52.0113V52.8084C16.8391 52.8125 16.93 52.814 17.1119 52.8166C17.3962 52.8328 17.5669 53.2127 17.5669 53.8702C17.5672 54.6034 17.5671 55.3365 17.567 56.0696V56.0803L17.5669 57.1853C17.5314 59.0664 18.1817 60.7343 20.3957 60.3055C22.2325 59.9496 22.6801 58.1572 22.6555 56.5188L22.6555 55.6246V55.6077C22.6556 54.7224 22.6556 53.8372 22.6553 52.9519C22.6553 52.4204 22.741 51.8717 23.1247 51.7359L23.2495 51.6906L23.2498 51.6905L23.253 51.6894C23.361 51.6502 23.4456 51.6196 23.5796 51.5707V50.7735C22.667 50.9661 21.7526 51.1516 20.8362 51.3264V52.1237ZM28.8835 57.5106C30.1917 57.0656 30.3443 54.8531 30.3325 53.7424C30.3316 53.6589 30.3338 53.5514 30.3362 53.4269C30.355 52.4664 30.3938 50.4877 29.2352 50.5793C28.8526 50.6608 28.6613 50.702 28.2786 50.785C27.8284 50.8829 27.8001 51.3118 27.8001 51.9593V56.7599C27.8001 57.4076 27.941 57.7146 28.2364 57.6503C28.4953 57.5941 28.6246 57.5663 28.8835 57.5106ZM25.3102 50.4376C26.6322 50.1466 27.954 49.8557 29.2773 49.5709C31.7479 48.9966 32.1939 51.7463 32.2316 53.509C32.2758 55.5815 31.0058 58.0518 28.7849 58.5452C27.8868 58.739 26.9896 58.9367 26.0923 59.1345L26.0918 59.1346L26.0913 59.1347L25.3102 59.3068L25.3103 58.5042L25.7604 58.3351C26.0981 58.1904 26.2105 57.7572 26.2105 57.1095L26.2106 52.2388C26.2106 51.577 26.0418 51.206 25.7604 51.2115L25.6354 51.2194L25.6346 51.2195C25.5272 51.2264 25.4433 51.2317 25.3102 51.24V50.4376ZM34.4207 56.4359C34.2377 56.4923 34.1464 56.5207 33.9634 56.5784L33.9633 57.3868C35.1122 57.2019 36.2659 57.0467 37.4243 56.9323L37.4245 56.1239C37.2413 56.1136 37.1497 56.1089 36.9666 56.1002C36.6091 56.068 36.4947 55.6714 36.4947 55.0191V50.1127C36.4947 49.4461 36.6662 49.0143 36.9522 48.9266C37.1353 48.8783 37.2268 48.8549 37.4099 48.8083V48.0001C36.2565 48.1146 35.1073 48.269 33.9633 48.4533V49.2615C34.1463 49.2605 34.2377 49.2601 34.4207 49.2605C34.7068 49.2733 34.8786 49.6599 34.8786 50.3262V55.2325C34.8786 55.885 34.764 56.3123 34.4207 56.4359ZM42.0827 55.8547C42.9128 55.8687 43.0817 54.9253 43.0817 53.9781V50.2718C43.0817 49.4915 42.9128 48.707 42.0827 48.6929C41.2384 48.6787 41.0837 49.4571 41.0837 50.2373C41.0836 51.0418 41.0837 51.8463 41.0837 52.6508V52.7082L41.0837 53.9437C41.0837 54.9609 41.2384 55.8405 42.0827 55.8547ZM39.1699 51.0068C39.1745 49.3963 40.3361 47.7618 42.0827 47.7871C43.8654 47.813 44.9848 49.4808 44.9955 51.121V53.6847C45.0232 55.346 43.8109 56.7736 42.0827 56.7464C40.3342 56.7187 39.1198 55.389 39.1559 53.669L39.1619 52.5207L39.1699 51.0068ZM49.8637 57.0254C49.0375 56.7711 48.2878 56.2334 47.8608 55.4798C47.6364 55.0838 47.4969 54.7473 47.4268 54.3569C47.1467 54.3 47.0068 54.2736 46.7266 54.2243V57.2186C47.0068 57.2677 47.1467 57.2943 47.4268 57.3513C47.5529 57.1261 47.707 56.8796 47.9311 56.9297C48.1552 56.9801 48.411 57.1639 48.7292 57.4007C49.0368 57.6296 49.527 57.9379 50.046 58.113C51.3222 58.5437 52.5961 57.8551 52.5669 56.4295C52.5313 54.6931 51.3718 53.2938 49.9198 52.4747C49.263 52.1041 48.3507 51.57 48.3651 50.6942C48.3739 50.1599 48.7293 49.6297 49.5136 49.8591C50.116 50.0353 50.802 50.7331 51.0543 51.1442C51.2636 51.485 51.4326 51.9393 51.5307 52.3951C51.8051 52.5013 51.9423 52.5567 52.2167 52.6722V50.0539C51.9423 49.9383 51.805 49.883 51.5305 49.7768L51.5302 49.777C51.4322 49.8366 51.3201 49.9048 51.1521 49.843C50.9619 49.7729 50.7713 49.6483 50.5708 49.5172L50.5708 49.5172L50.5079 49.4761C50.2419 49.3031 49.773 49.0747 49.3458 48.9471C48.0587 48.5628 46.8214 49.399 46.8244 50.7599C46.8272 52.0564 47.4796 53.141 48.5892 53.8416C49.0263 54.1299 49.2447 54.2791 49.6817 54.5885C50.1439 54.9221 50.8862 55.5125 50.8862 56.3062C50.8862 56.8634 50.4516 57.2064 49.8637 57.0254Z" fill="white"/>
</svg>
