<?xml version="1.0" encoding="utf-8"?>
<!-- Generator: Adobe Illustrator 16.0.4, SVG Export Plug-In . SVG Version: 6.00 Build 0)  -->
<!DOCTYPE svg PUBLIC "-//W3C//DTD SVG 1.1//EN" "http://www.w3.org/Graphics/SVG/1.1/DTD/svg11.dtd">
<svg version="1.1" id="Layer_1" xmlns="http://www.w3.org/2000/svg" xmlns:xlink="http://www.w3.org/1999/xlink" x="0px" y="0px"
	 width="96px" height="96px" viewBox="0 0 96 96" enable-background="new 0 0 96 96" xml:space="preserve">
<g>
	<g>
		<path fill="#E23C52" d="M85.058,75.823l-2.964-2.149c1.024-1.471,1.966-3.02,2.799-4.605l3.205,1.751
			C87.193,72.542,86.171,74.226,85.058,75.823z M90.492,65.462l-3.398-1.319c0.627-1.685,1.154-3.426,1.566-5.174l3.535,0.865
			C91.748,61.735,91.175,63.629,90.492,65.462z"/>
		<path fill="#E23C52" d="M47.995,95.34c-0.952,0-1.912-0.03-2.857-0.09l0.224-3.702c1.769,0.11,3.582,0.107,5.312-0.004
			l0.231,3.701C49.951,95.307,48.973,95.339,47.995,95.34z M39.412,94.515c-1.888-0.368-3.77-0.864-5.593-1.474l1.133-3.524
			c1.676,0.561,3.406,1.017,5.143,1.354L39.412,94.515z M56.63,94.504l-0.688-3.643c1.734-0.34,3.463-0.799,5.137-1.359l1.137,3.522
			C60.395,93.637,58.516,94.134,56.63,94.504z M28.458,90.852c-1.731-0.843-3.429-1.807-5.043-2.867l1.97-3.119
			c1.485,0.976,3.045,1.863,4.638,2.638L28.458,90.852z M67.57,90.831l-1.568-3.347c1.592-0.776,3.151-1.665,4.633-2.641
			l1.973,3.117C70.995,89.021,69.302,89.988,67.57,90.831z M18.771,84.491c-1.467-1.256-2.871-2.622-4.175-4.062l2.671-2.517
			c1.2,1.325,2.493,2.583,3.843,3.738L18.771,84.491z M77.248,84.463l-2.343-2.839c1.352-1.16,2.645-2.419,3.841-3.742l2.673,2.515
			C80.119,81.834,78.716,83.201,77.248,84.463z M10.957,75.863c-1.114-1.592-2.139-3.272-3.044-4.997l3.203-1.754
			c0.835,1.585,1.776,3.132,2.803,4.598L10.957,75.863z M5.514,65.517c-0.685-1.83-1.261-3.721-1.71-5.622l3.534-0.872
			c0.414,1.748,0.944,3.488,1.573,5.17L5.514,65.517z"/>
	</g>
	<path fill="none" stroke="#3D68B0" stroke-width="4" stroke-linejoin="bevel" stroke-miterlimit="10" d="M48,78.493"/>
	<g>
		<path fill="#21B8BF" d="M93.103,44.844C91.422,27.227,80.273,12.635,64.832,6.365h22.864c0.571,1.719,2.152,2.967,4.029,2.967
			c2.356,0,4.272-1.955,4.272-4.357c0-2.404-1.916-4.36-4.272-4.36c-1.877,0-3.458,1.249-4.029,2.969H54.688
			c-0.842-0.128-1.691-0.232-2.548-0.313v-2.79h-8.547v2.64H8.126C7.439,1.644,5.978,0.614,4.273,0.614
			c-2.355,0-4.272,1.956-4.272,4.36c0,2.402,1.917,4.357,4.272,4.357c1.704,0,3.166-1.029,3.853-2.504H29.82
			c-14.879,6.5-25.549,20.809-27.19,38.016H0v8.719h8.545v-8.719H6.292C8.375,24.749,23.851,9.02,43.593,6.997v2.198h8.547V6.996
			C71.88,9.02,87.357,24.754,89.441,44.844h-1.987v8.719H96v-8.719H93.103z M91.726,3.397c0.852,0,1.545,0.708,1.545,1.577
			c0,0.868-0.693,1.575-1.545,1.575c-0.853,0-1.546-0.707-1.546-1.575C90.18,4.105,90.873,3.397,91.726,3.397z M4.273,6.55
			c-0.852,0-1.545-0.707-1.545-1.575c0-0.869,0.693-1.577,1.545-1.577c0.853,0,1.546,0.708,1.546,1.577
			C5.819,5.843,5.126,6.55,4.273,6.55z M5.817,50.779h-3.09v-3.153h3.09V50.779z M49.412,6.414H46.32V3.262h3.092V6.414z
			 M93.272,50.779h-3.091v-3.153h3.091V50.779z"/>
		<path fill="#3D68B0" d="M68.593,48.002c-2.749,2.488-5.935,4.357-9.356,5.538l-7.409-15.532c-1.188-2.372-3.138-4.291-5.592-5.522
			l-0.446-0.231c-2.025-0.872-3.333-2.886-3.333-5.127c0-3.069,2.447-5.564,5.454-5.564c3.008,0,5.456,2.495,5.456,5.564
			c0,2.088-1.128,3.973-2.942,4.936c1.039,0.755,1.946,1.651,2.694,2.668c2.423-1.723,3.885-4.533,3.885-7.604
			c0-4.457-3.099-8.186-7.213-9.073v-5.945h-3.76v5.945c-4.113,0.887-7.211,4.616-7.211,9.073c0,3.709,2.148,7.043,5.481,8.513
			l0.285,0.151c0.077,0.04,0.149,0.084,0.225,0.123L24.573,77.671l3.261,1.645l11.081-22.866c3.669,1.512,7.549,2.276,11.559,2.276
			c7.579,0,14.871-2.824,20.533-7.95L68.593,48.002z M50.474,55.016c-3.445,0-6.78-0.645-9.938-1.907l7.172-14.797
			c0.333,0.425,0.627,0.875,0.866,1.352l7.08,14.844C53.958,54.841,52.226,55.016,50.474,55.016z"/>
		<path fill="#3D68B0" d="M58.559,60.271l9.337,19.058l3.247-1.67L62.048,59.09C60.909,59.553,59.744,59.949,58.559,60.271z"/>
	</g>
</g>
</svg>
