<?xml version="1.0" encoding="utf-8"?>
<!-- Generator: Adobe Illustrator 16.0.4, SVG Export Plug-In . SVG Version: 6.00 Build 0)  -->
<!DOCTYPE svg PUBLIC "-//W3C//DTD SVG 1.1//EN" "http://www.w3.org/Graphics/SVG/1.1/DTD/svg11.dtd">
<svg version="1.1" id="Layer_1" xmlns="http://www.w3.org/2000/svg" xmlns:xlink="http://www.w3.org/1999/xlink" x="0px" y="0px"
	 viewBox="0 0 96 96" enable-background="new 0 0 96 96" xml:space="preserve">
<g>
	<g>
		<path fill="#3D68B0" d="M72.764,17.236c-3.498,0-6.344,2.846-6.344,6.344c0,3.499,2.847,6.345,6.346,6.345
			c3.498,0,6.344-2.846,6.344-6.345C79.109,20.082,76.263,17.236,72.764,17.236z M72.766,25.925h-0.002
			c-1.292,0-2.344-1.052-2.344-2.345c0-1.292,1.052-2.344,2.344-2.344c1.293,0,2.346,1.051,2.346,2.344
			C75.109,24.873,74.058,25.925,72.766,25.925z"/>
		<path fill="#3D68B0" d="M85.621,12.058l-0.313-0.984l-0.982-0.315c-0.1-0.032-2.484-0.782-6.11-0.782
			c-4.169,0-10.489,0.999-16.979,5.795L46.544,27.328c-1.855-1.372-9.051-5.369-19.593,5.172l-1.538,1.538l8.206,6.933
			c-0.49,1.577-0.727,3.333-0.5,5.267c-1.397,1.4-4.011,4.448-4.166,7.784c-0.084,1.816,0.575,3.48,1.907,4.812l6.485,6.485
			c1.258,1.259,2.82,1.924,4.517,1.924c3.405,0,6.521-2.629,7.963-4.06c0.577,0.079,1.154,0.119,1.727,0.119
			c0.001,0,0.001,0,0.002,0c2.092,0,3.948-0.524,5.563-1.285l6.023,7.129l1.538-1.538c9.964-9.963,6.94-16.933,5.42-19.234
			l10.505-13.319C89.125,23.521,85.768,12.521,85.621,12.058z M31.37,33.834c5.956-5.235,9.976-4.636,11.803-3.854l-2.751,2.164
			c-0.541,0.361-3.07,2.144-5.021,5.095L31.37,33.834z M41.863,63.243c-0.639,0-1.175-0.239-1.688-0.752l-6.485-6.485
			c-0.538-0.538-0.767-1.085-0.741-1.773c0.045-1.192,0.817-2.527,1.661-3.631c1.42,1.958,3.086,3.91,4.935,5.759
			c1.96,1.96,4.024,3.707,6.091,5.175C44.496,62.42,43.088,63.243,41.863,63.243z M63.346,63.19l-2.821-3.34
			c2.083-1.711,3.346-3.508,3.646-3.957l3.199-4.057C68.039,53.83,68.189,57.682,63.346,63.19z M60.975,53.485l-0.114,0.16
			c-0.036,0.057-3.709,5.657-9.307,5.657c-0.657,0-1.328-0.077-1.996-0.229l-0.654-0.146c-0.223-0.147-0.446-0.3-0.669-0.455
			l0.797-0.798c12.513-12.513,9.948-19.61,9.614-20.378l-3.695,1.529c0.018,0.05,1.513,4.726-6.596,13.755l-1.589-4.167
			l-3.737,1.425l2.51,6.582c-1.071-0.89-2.132-1.856-3.166-2.89c-1.877-1.878-3.547-3.859-4.92-5.827l-0.232-1.136
			c-1.351-6.622,5.175-10.938,5.448-11.115l12.066-9.485c1.54,3.143,3.699,6.153,6.353,8.807c2.831,2.832,6.047,5.087,9.408,6.639
			L60.975,53.485z M73.051,38.176c-3.248-1.347-6.385-3.479-9.135-6.229c-2.562-2.564-4.604-5.486-5.96-8.511l5.705-4.484
			c5.565-4.112,10.986-4.975,14.554-4.975c1.655,0,2.986,0.185,3.84,0.347c0.518,2.73,1.23,10.371-4.629,18.304L73.051,38.176z"/>
	</g>
	<g>
		<path fill="#E23C52" d="M0.086,79.554v4c6.785,0,12.305,5.52,12.305,12.305h4C16.391,86.868,9.076,79.554,0.086,79.554z"/>
		<path fill="#E23C52" d="M0.055,67.872v4c13.257,0,24.042,10.785,24.042,24.043h4C28.097,80.452,15.517,67.872,0.055,67.872z"/>
		<path fill="#E23C52" d="M0,55.678v4c19.982,0,36.238,16.256,36.238,36.237h4C40.238,73.729,22.188,55.678,0,55.678z"/>
	</g>
	<g>
		<path fill="#21B8BF" d="M79.43,62.21c-0.97-0.479-2.2-0.06-2.68,0.9c-0.24,0.479-0.28,1.02-0.11,1.52
			c0.17,0.51,0.53,0.92,1.01,1.16c0.28,0.14,0.58,0.21,0.891,0.21c0.76,0,1.45-0.42,1.79-1.1C80.819,63.91,80.42,62.7,79.43,62.21z"
			/>
		<path fill="#21B8BF" d="M65.25,80.62c3.37-1.86,6.42-4.24,9.06-7.07c0.76-0.81,0.71-2.08-0.09-2.83
			c-0.78-0.72-2.11-0.68-2.83,0.101c-2.35,2.52-5.07,4.64-8.07,6.3l-0.1,0.05c-1.64,0.9-3.37,1.67-5.13,2.271
			c-0.51,0.17-0.92,0.529-1.15,1.01c-0.239,0.479-0.27,1.02-0.1,1.52c0.28,0.811,1.04,1.36,1.89,1.36c0.221,0,0.44-0.04,0.65-0.11
			c1.99-0.68,3.939-1.54,5.8-2.56C65.2,80.65,65.229,80.63,65.25,80.62z"/>
		<path fill="#21B8BF" d="M81.31,56.51c0.11,0.021,0.221,0.03,0.34,0.03c0.98,0,1.801-0.7,1.971-1.66
			c0.359-2.069,0.54-4.189,0.54-6.31c0-1.1-0.891-2-2-2c-1.101,0-2,0.9-2,2c0,1.88-0.16,3.779-0.48,5.62
			c-0.09,0.529,0.03,1.06,0.34,1.5C80.319,56.12,80.78,56.42,81.31,56.51z"/>
		<path fill="#21B8BF" d="M48.86,81.15c-1.1,0.04-1.96,0.97-1.92,2.069c0.04,1.08,0.92,1.92,2,1.92c0.02,0,0.05,0,0.08,0
			c1.101-0.04,1.96-0.97,1.92-2.069C50.89,81.96,49.97,81.11,48.86,81.15z"/>
		<path fill="#21B8BF" d="M50.58,13.63c0-1.09-0.87-1.97-1.95-2h-0.05c-2.11,0-4.23,0.18-6.31,0.54c-0.53,0.09-0.99,0.38-1.29,0.82
			c-0.31,0.43-0.43,0.97-0.34,1.49c0.17,0.96,0.99,1.66,1.97,1.66c0.11,0,0.23-0.01,0.34-0.03c1.85-0.32,3.75-0.48,5.63-0.48
			C49.68,15.63,50.58,14.73,50.58,13.63z"/>
		<path fill="#21B8BF" d="M23.6,21.47c-2.85,2.67-5.24,5.74-7.11,9.14c-1.02,1.84-1.88,3.79-2.57,5.8
			c-0.35,1.04,0.21,2.18,1.25,2.54c0.21,0.07,0.43,0.1,0.65,0.1c0.85,0,1.61-0.54,1.89-1.35c0.61-1.78,1.37-3.51,2.28-5.16
			c1.67-3.03,3.8-5.77,6.34-8.14c0.81-0.76,0.85-2.02,0.1-2.83C25.7,20.79,24.37,20.75,23.6,21.47z"/>
		<path fill="#21B8BF" d="M32.25,15.46c-0.98,0.49-1.38,1.7-0.89,2.68c0.34,0.69,1.02,1.11,1.79,1.11c0.31,0,0.61-0.07,0.89-0.21
			c0.98-0.49,1.39-1.7,0.9-2.68C34.46,15.4,33.22,14.98,32.25,15.46z"/>
		<path fill="#21B8BF" d="M14.08,44.85c-1.12-0.07-2.04,0.82-2.08,1.92c-0.04,1.1,0.82,2.03,1.92,2.08c0.03,0,0.05,0,0.08,0
			c1.08,0,1.95-0.85,2-1.92c0.02-0.54-0.17-1.05-0.53-1.44C15.1,45.1,14.61,44.87,14.08,44.85z"/>
		<path fill="#21B8BF" d="M89.14,33.42l0.03,0.06c0.89,2.38,1.58,4.85,2.05,7.36c0.17,0.95,1,1.63,1.96,1.63
			c0.13,0,0.25-0.01,0.37-0.03c1.08-0.2,1.8-1.25,1.6-2.33c-0.51-2.74-1.26-5.45-2.239-8.04c-0.37-1-1.561-1.54-2.57-1.16
			c-0.5,0.18-0.9,0.56-1.12,1.04c-0.21,0.47-0.24,0.98-0.07,1.47H89.14z"/>
		<path fill="#21B8BF" d="M95.39,49.061C95.03,48.67,94.53,48.44,94,48.43c-1.12-0.07-2.03,0.82-2.061,1.93
			c-0.02,0.529,0.17,1.04,0.53,1.43c0.37,0.39,0.86,0.62,1.4,0.63c0.02,0.01,0.04,0.01,0.069,0.01c1.08,0,1.96-0.85,1.99-1.939
			C95.95,49.96,95.76,49.45,95.39,49.061z"/>
		<path fill="#21B8BF" d="M56.24,92.04c-0.53,0.09-0.98,0.39-1.28,0.83c-0.311,0.44-0.42,0.97-0.32,1.5
			c0.18,0.94,1.01,1.63,1.97,1.63c0.12,0,0.25-0.01,0.37-0.03c1.08-0.21,1.801-1.26,1.59-2.34C58.37,92.561,57.31,91.83,56.24,92.04
			z"/>
		<path fill="#21B8BF" d="M72.09,85.64c-2.13,1.4-4.39,2.61-6.73,3.62c-0.489,0.21-0.869,0.601-1.069,1.09
			c-0.19,0.5-0.19,1.04,0.02,1.53c0.32,0.74,1.04,1.21,1.84,1.21h0.011c0.27,0,0.529-0.05,0.779-0.16
			c2.54-1.09,5.011-2.409,7.341-3.939c0.579-0.38,0.909-1.01,0.909-1.7c-0.01-0.38-0.12-0.75-0.33-1.07
			C74.28,85.33,72.99,85.05,72.09,85.64z"/>
		<path fill="#21B8BF" d="M92.319,61.28c-0.949-0.311-2.01,0.16-2.43,1.04V62.26l-0.1,0.301c-0.78,2.409-1.79,4.779-3,7.029
			c-0.25,0.471-0.3,1.01-0.15,1.521c0.16,0.51,0.5,0.93,0.97,1.18c0.29,0.16,0.62,0.24,0.95,0.24c0.73,0,1.41-0.4,1.76-1.061
			c1.311-2.439,2.4-5,3.261-7.62c0-0.01,0.01-0.02,0.02-0.039V63.8c0.061-0.21,0.101-0.42,0.09-0.64
			C93.689,62.3,93.13,61.55,92.319,61.28z"/>
		<path fill="#21B8BF" d="M81.399,77.46c-0.72,0.84-0.619,2.101,0.221,2.82c0.359,0.31,0.819,0.479,1.3,0.479
			c0.58,0,1.14-0.25,1.52-0.689c0.71-0.84,0.62-2.11-0.22-2.82C83.41,76.55,82.09,76.66,81.399,77.46z"/>
		<path fill="#21B8BF" d="M6.43,28.49c-1-0.41-2.2,0.09-2.61,1.09C3.4,30.6,3.88,31.77,4.9,32.19c0.25,0.1,0.5,0.15,0.77,0.15
			c0.81,0,1.54-0.48,1.85-1.23C7.94,30.09,7.45,28.92,6.43,28.49z"/>
		<path fill="#21B8BF" d="M47.98,1.96c-0.05-1.1-0.98-1.97-2.09-1.91c-2.74,0.12-5.49,0.49-8.18,1.08c-0.03,0-0.06,0.01-0.08,0.01
			l-0.04,0.02c-0.9,0.21-1.52,1-1.53,1.92c0,0.15,0.02,0.3,0.05,0.45c0.2,0.91,1.02,1.57,1.95,1.57c0.15,0,0.29-0.02,0.44-0.05
			c2.48-0.55,5.02-0.89,7.57-1C47.17,4,48.03,3.06,47.98,1.96z"/>
		<path fill="#21B8BF" d="M3.23,37.96c-1.08-0.19-2.13,0.55-2.32,1.62C0.44,42.3,0.2,45.1,0.2,47.88c0,1.11,0.89,2,2,2
			c1.1,0,2-0.89,2-2c0-2.56,0.22-5.12,0.65-7.61C5.04,39.18,4.31,38.15,3.23,37.96z"/>
		<path fill="#21B8BF" d="M13.83,20.45c1.59-1.98,3.36-3.84,5.28-5.53c0.83-0.73,0.91-1.99,0.18-2.82c-0.7-0.8-2.02-0.88-2.82-0.18
			c-2.08,1.83-4.02,3.86-5.76,6.02c-0.29,0.36-0.44,0.78-0.44,1.23c-0.01,0.62,0.27,1.2,0.75,1.59c0.35,0.28,0.79,0.44,1.25,0.44
			C12.88,21.2,13.45,20.92,13.83,20.45z"/>
		<path fill="#21B8BF" d="M55.939,4.67c0.98,0,1.811-0.69,1.971-1.66c0.189-1.08-0.54-2.12-1.63-2.31L56.22,0.69
			c-1.07-0.14-2.07,0.59-2.25,1.64c-0.189,1.09,0.55,2.13,1.63,2.32C55.71,4.66,55.83,4.67,55.939,4.67z"/>
		<path fill="#21B8BF" d="M24.98,5.93c-0.46,0.26-0.8,0.68-0.95,1.2c-0.15,0.51-0.09,1.05,0.17,1.52c0.35,0.64,1.02,1.03,1.75,1.03
			c0.34,0,0.67-0.08,0.96-0.25c0.97-0.53,1.32-1.75,0.79-2.71C27.19,5.78,25.92,5.41,24.98,5.93z"/>
	</g>
</g>
</svg>
