<?xml version="1.0" encoding="utf-8"?>
<!-- Generator: Adobe Illustrator 16.0.4, SVG Export Plug-In . SVG Version: 6.00 Build 0)  -->
<!DOCTYPE svg PUBLIC "-//W3C//DTD SVG 1.1//EN" "http://www.w3.org/Graphics/SVG/1.1/DTD/svg11.dtd">
<svg version="1.1" id="Layer_1" xmlns="http://www.w3.org/2000/svg" xmlns:xlink="http://www.w3.org/1999/xlink" x="0px" y="0px"
	viewBox="0 0 96.001 96" enable-background="new 0 0 96.001 96" xml:space="preserve">
<g>
	<g>
		<path fill="#E23C52" d="M-57.252,75.838l-2.964-2.149c1.024-1.471,1.966-3.02,2.799-4.605l3.205,1.751
			C-55.116,72.557-56.139,74.24-57.252,75.838z M-51.817,65.477l-3.398-1.319c0.627-1.685,1.154-3.426,1.566-5.174l3.535,0.865
			C-50.562,61.75-51.135,63.644-51.817,65.477z"/>
		<path fill="#E23C52" d="M-94.314,95.354c-0.952,0-1.912-0.03-2.857-0.09l0.224-3.702c1.769,0.11,3.582,0.107,5.312-0.004
			l0.231,3.701C-92.358,95.321-93.337,95.354-94.314,95.354z M-102.897,94.529c-1.888-0.368-3.77-0.864-5.593-1.474l1.133-3.524
			c1.676,0.561,3.406,1.017,5.143,1.354L-102.897,94.529z M-85.68,94.519l-0.688-3.643c1.734-0.34,3.463-0.799,5.137-1.359
			l1.137,3.522C-81.915,93.651-83.794,94.148-85.68,94.519z M-113.852,90.866c-1.731-0.843-3.429-1.807-5.043-2.867l1.97-3.119
			c1.485,0.976,3.045,1.863,4.638,2.638L-113.852,90.866z M-74.739,90.846l-1.568-3.347c1.592-0.776,3.151-1.665,4.633-2.641
			l1.973,3.117C-71.314,89.036-73.008,90.003-74.739,90.846z M-123.538,84.506c-1.467-1.256-2.871-2.622-4.175-4.062l2.671-2.517
			c1.2,1.325,2.493,2.583,3.843,3.738L-123.538,84.506z M-65.062,84.478l-2.343-2.839c1.352-1.16,2.645-2.419,3.841-3.742
			l2.673,2.515C-62.19,81.849-63.594,83.216-65.062,84.478z M-131.353,75.878c-1.114-1.592-2.139-3.272-3.044-4.997l3.203-1.754
			c0.835,1.585,1.776,3.132,2.803,4.598L-131.353,75.878z M-136.796,65.531c-0.685-1.83-1.261-3.721-1.71-5.622l3.534-0.872
			c0.414,1.748,0.944,3.488,1.573,5.17L-136.796,65.531z"/>
	</g>
	<path fill="none" stroke="#3D68B0" stroke-width="4" stroke-linejoin="bevel" stroke-miterlimit="10" d="M-94.31,78.508"/>
	<g>
		<path fill="#21B8BF" d="M-49.207,44.858C-50.888,27.241-62.036,12.649-77.478,6.38h22.864c0.571,1.719,2.152,2.967,4.029,2.967
			c2.356,0,4.272-1.955,4.272-4.357c0-2.404-1.916-4.36-4.272-4.36c-1.877,0-3.458,1.249-4.029,2.969h-33.009
			c-0.842-0.128-1.691-0.232-2.548-0.313v-2.79h-8.547v2.64h-35.467c-0.687-1.476-2.148-2.505-3.853-2.505
			c-2.355,0-4.272,1.956-4.272,4.36c0,2.402,1.917,4.357,4.272,4.357c1.704,0,3.166-1.029,3.853-2.504h21.694
			c-14.879,6.5-25.549,20.809-27.19,38.016h-2.63v8.719h8.545v-8.719h-2.253c2.083-20.095,17.559-35.824,37.301-37.847V9.21h8.547
			V7.011c19.74,2.023,35.218,17.758,37.302,37.848h-1.987v8.719h8.546v-8.719H-49.207z M-50.584,3.412
			c0.852,0,1.545,0.708,1.545,1.577c0,0.868-0.693,1.575-1.545,1.575c-0.853,0-1.546-0.707-1.546-1.575
			C-52.13,4.12-51.437,3.412-50.584,3.412z M-138.036,6.564c-0.852,0-1.545-0.707-1.545-1.575c0-0.869,0.693-1.577,1.545-1.577
			c0.853,0,1.546,0.708,1.546,1.577C-136.49,5.857-137.184,6.564-138.036,6.564z M-136.492,50.794h-3.09v-3.153h3.09V50.794z
			 M-92.897,6.429h-3.092V3.276h3.092V6.429z M-49.037,50.794h-3.091v-3.153h3.091V50.794z"/>
		<path fill="#3D68B0" d="M-73.717,48.017c-2.749,2.488-5.935,4.357-9.356,5.538l-7.409-15.532
			c-1.188-2.372-3.138-4.291-5.592-5.522l-0.446-0.231c-2.025-0.872-3.333-2.886-3.333-5.127c0-3.069,2.447-5.564,5.454-5.564
			c3.008,0,5.456,2.495,5.456,5.564c0,2.088-1.128,3.973-2.942,4.936c1.039,0.755,1.946,1.651,2.694,2.668
			c2.423-1.723,3.885-4.533,3.885-7.604c0-4.457-3.099-8.186-7.213-9.073v-5.945h-3.76v5.945c-4.113,0.887-7.211,4.616-7.211,9.073
			c0,3.709,2.148,7.043,5.481,8.513l0.285,0.151c0.077,0.04,0.149,0.084,0.225,0.123l-20.237,41.757l3.261,1.645l11.081-22.866
			c3.669,1.512,7.549,2.276,11.559,2.276c7.579,0,14.871-2.824,20.533-7.95L-73.717,48.017z M-91.836,55.03
			c-3.445,0-6.78-0.645-9.938-1.907l7.172-14.797c0.333,0.425,0.627,0.875,0.866,1.352l7.08,14.844
			C-88.352,54.855-90.084,55.03-91.836,55.03z"/>
		<path fill="#3D68B0" d="M-83.751,60.285l9.337,19.058l3.247-1.67l-9.095-18.568C-81.4,59.567-82.565,59.964-83.751,60.285z"/>
	</g>
</g>
<g>
	<g>
		<path fill="#3D68B0" d="M-69.546-102.082c-3.498,0-6.344,2.846-6.344,6.344c0,3.499,2.847,6.345,6.346,6.345
			c3.498,0,6.344-2.846,6.344-6.345C-63.2-99.236-66.047-102.082-69.546-102.082z M-69.544-93.394h-0.002
			c-1.292,0-2.344-1.052-2.344-2.345c0-1.292,1.052-2.344,2.344-2.344c1.293,0,2.346,1.051,2.346,2.344
			C-67.2-94.445-68.252-93.394-69.544-93.394z"/>
		<path fill="#3D68B0" d="M-56.688-107.26l-0.313-0.984l-0.982-0.315c-0.1-0.032-2.484-0.782-6.11-0.782
			c-4.169,0-10.489,0.999-16.979,5.795L-95.765-91.99c-1.855-1.372-9.051-5.369-19.593,5.172l-1.538,1.538l8.206,6.933
			c-0.49,1.577-0.727,3.333-0.5,5.267c-1.397,1.4-4.011,4.448-4.166,7.784c-0.084,1.816,0.575,3.48,1.907,4.812l6.485,6.485
			c1.258,1.259,2.82,1.924,4.517,1.924c3.405,0,6.521-2.629,7.963-4.06c0.577,0.079,1.154,0.119,1.727,0.119
			c0.001,0,0.001,0,0.002,0c2.092,0,3.948-0.524,5.563-1.285l6.023,7.129l1.538-1.538c9.964-9.963,6.94-16.933,5.42-19.234
			l10.505-13.319C-53.185-95.797-56.542-106.798-56.688-107.26z M-110.94-85.484c5.956-5.235,9.976-4.636,11.803-3.854l-2.751,2.164
			c-0.541,0.361-3.07,2.144-5.021,5.095L-110.94-85.484z M-100.447-56.075c-0.639,0-1.175-0.239-1.688-0.752l-6.485-6.485
			c-0.538-0.538-0.767-1.085-0.741-1.773c0.045-1.192,0.817-2.527,1.661-3.631c1.42,1.958,3.086,3.91,4.935,5.759
			c1.96,1.96,4.024,3.707,6.091,5.175C-97.814-56.898-99.222-56.075-100.447-56.075z M-78.964-56.128l-2.821-3.34
			c2.083-1.711,3.346-3.508,3.646-3.957l3.199-4.057C-74.271-65.488-74.12-61.637-78.964-56.128z M-81.335-65.833l-0.114,0.16
			c-0.036,0.057-3.709,5.657-9.307,5.657c-0.657,0-1.328-0.077-1.996-0.229l-0.654-0.146c-0.223-0.147-0.446-0.3-0.669-0.455
			l0.797-0.798c12.513-12.513,9.948-19.61,9.614-20.378l-3.695,1.529c0.018,0.05,1.513,4.726-6.596,13.755l-1.589-4.167
			l-3.737,1.425l2.51,6.582c-1.071-0.89-2.132-1.856-3.166-2.89c-1.877-1.878-3.547-3.859-4.92-5.827l-0.232-1.136
			c-1.351-6.622,5.175-10.938,5.448-11.115l12.066-9.485c1.54,3.143,3.699,6.153,6.353,8.807c2.831,2.832,6.047,5.087,9.408,6.639
			L-81.335-65.833z M-69.259-81.143c-3.248-1.347-6.385-3.479-9.135-6.229c-2.562-2.564-4.604-5.486-5.96-8.511l5.705-4.484
			c5.565-4.112,10.986-4.975,14.554-4.975c1.655,0,2.986,0.185,3.84,0.347c0.518,2.73,1.23,10.371-4.629,18.304L-69.259-81.143z"/>
	</g>
	<g>
		<path fill="#E23C52" d="M-142.224-39.765v4c6.785,0,12.305,5.52,12.305,12.305h4C-125.919-32.45-133.233-39.765-142.224-39.765z"
			/>
		<path fill="#E23C52" d="M-142.255-51.446v4c13.257,0,24.042,10.785,24.042,24.043h4
			C-114.213-38.866-126.792-51.446-142.255-51.446z"/>
		<path fill="#E23C52" d="M-142.31-63.641v4c19.982,0,36.238,16.256,36.238,36.237h4C-102.071-45.59-120.122-63.641-142.31-63.641z"
			/>
	</g>
	<g>
		<path fill="#21B8BF" d="M-62.88-57.108c-0.97-0.479-2.2-0.06-2.68,0.9c-0.24,0.479-0.28,1.02-0.11,1.52
			c0.17,0.51,0.53,0.92,1.01,1.16c0.28,0.14,0.58,0.21,0.891,0.21c0.76,0,1.45-0.42,1.79-1.1
			C-61.49-55.408-61.89-56.618-62.88-57.108z"/>
		<path fill="#21B8BF" d="M-77.06-38.698c3.37-1.86,6.42-4.24,9.06-7.07c0.76-0.81,0.71-2.08-0.09-2.83
			c-0.78-0.72-2.11-0.68-2.83,0.101c-2.35,2.52-5.07,4.64-8.07,6.3l-0.1,0.05c-1.64,0.9-3.37,1.67-5.13,2.271
			c-0.51,0.17-0.92,0.529-1.15,1.01c-0.239,0.479-0.27,1.02-0.1,1.52c0.28,0.811,1.04,1.36,1.89,1.36c0.221,0,0.44-0.04,0.65-0.11
			c1.99-0.68,3.939-1.54,5.8-2.56C-77.109-38.668-77.08-38.688-77.06-38.698z"/>
		<path fill="#21B8BF" d="M-61-62.809c0.11,0.021,0.221,0.03,0.34,0.03c0.98,0,1.801-0.7,1.971-1.66
			c0.359-2.069,0.54-4.189,0.54-6.31c0-1.1-0.891-2-2-2c-1.101,0-2,0.9-2,2c0,1.88-0.16,3.779-0.48,5.62
			c-0.09,0.529,0.03,1.06,0.34,1.5C-61.99-63.198-61.529-62.898-61-62.809z"/>
		<path fill="#21B8BF" d="M-93.45-38.168c-1.1,0.04-1.96,0.97-1.92,2.069c0.04,1.08,0.92,1.92,2,1.92c0.02,0,0.05,0,0.08,0
			c1.101-0.04,1.96-0.97,1.92-2.069C-91.42-37.358-92.34-38.208-93.45-38.168z"/>
		<path fill="#21B8BF" d="M-91.729-105.688c0-1.09-0.87-1.97-1.95-2h-0.05c-2.11,0-4.23,0.18-6.31,0.54
			c-0.53,0.09-0.99,0.38-1.29,0.82c-0.31,0.43-0.43,0.97-0.34,1.49c0.17,0.96,0.99,1.66,1.97,1.66c0.11,0,0.23-0.01,0.34-0.03
			c1.85-0.32,3.75-0.48,5.63-0.48C-92.63-103.688-91.729-104.588-91.729-105.688z"/>
		<path fill="#21B8BF" d="M-118.71-97.849c-2.85,2.67-5.24,5.74-7.11,9.14c-1.02,1.84-1.88,3.79-2.57,5.8
			c-0.35,1.04,0.21,2.18,1.25,2.54c0.21,0.07,0.43,0.1,0.65,0.1c0.85,0,1.61-0.54,1.89-1.35c0.61-1.78,1.37-3.51,2.28-5.16
			c1.67-3.03,3.8-5.77,6.34-8.14c0.81-0.76,0.85-2.02,0.1-2.83C-116.61-98.528-117.94-98.568-118.71-97.849z"/>
		<path fill="#21B8BF" d="M-110.06-103.858c-0.98,0.49-1.38,1.7-0.89,2.68c0.34,0.69,1.02,1.11,1.79,1.11
			c0.31,0,0.61-0.07,0.89-0.21c0.98-0.49,1.39-1.7,0.9-2.68C-107.85-103.918-109.09-104.338-110.06-103.858z"/>
		<path fill="#21B8BF" d="M-128.23-74.469c-1.12-0.07-2.04,0.82-2.08,1.92c-0.04,1.1,0.82,2.03,1.92,2.08c0.03,0,0.05,0,0.08,0
			c1.08,0,1.95-0.85,2-1.92c0.02-0.54-0.17-1.05-0.53-1.44C-127.21-74.219-127.7-74.449-128.23-74.469z"/>
		<path fill="#21B8BF" d="M-53.17-85.898l0.03,0.06c0.89,2.38,1.58,4.85,2.05,7.36c0.17,0.95,1,1.63,1.96,1.63
			c0.13,0,0.25-0.01,0.37-0.03c1.08-0.2,1.8-1.25,1.6-2.33c-0.51-2.74-1.26-5.45-2.239-8.04c-0.37-1-1.561-1.54-2.57-1.16
			c-0.5,0.18-0.9,0.56-1.12,1.04c-0.21,0.47-0.24,0.98-0.07,1.47H-53.17z"/>
		<path fill="#21B8BF" d="M-46.92-70.258c-0.359-0.391-0.859-0.621-1.39-0.63c-1.12-0.07-2.03,0.82-2.061,1.93
			c-0.02,0.529,0.17,1.04,0.53,1.43c0.37,0.39,0.86,0.62,1.4,0.63c0.02,0.01,0.04,0.01,0.069,0.01c1.08,0,1.96-0.85,1.99-1.939
			C-46.359-69.358-46.55-69.868-46.92-70.258z"/>
		<path fill="#21B8BF" d="M-86.069-27.278c-0.53,0.09-0.98,0.39-1.28,0.83c-0.311,0.44-0.42,0.97-0.32,1.5
			c0.18,0.94,1.01,1.63,1.97,1.63c0.12,0,0.25-0.01,0.37-0.03c1.08-0.21,1.801-1.26,1.59-2.34
			C-83.939-26.758-85-27.488-86.069-27.278z"/>
		<path fill="#21B8BF" d="M-70.22-33.679c-2.13,1.4-4.39,2.61-6.73,3.62c-0.489,0.21-0.869,0.601-1.069,1.09
			c-0.19,0.5-0.19,1.04,0.02,1.53c0.32,0.74,1.04,1.21,1.84,1.21h0.011c0.27,0,0.529-0.05,0.779-0.16
			c2.54-1.09,5.011-2.409,7.341-3.939c0.579-0.38,0.909-1.01,0.909-1.7c-0.01-0.38-0.12-0.75-0.33-1.07
			C-68.029-33.988-69.319-34.269-70.22-33.679z"/>
		<path fill="#21B8BF" d="M-49.99-58.038c-0.949-0.311-2.01,0.16-2.43,1.04v-0.061l-0.1,0.301c-0.78,2.409-1.79,4.779-3,7.029
			c-0.25,0.471-0.3,1.01-0.15,1.521c0.16,0.51,0.5,0.93,0.97,1.18c0.29,0.16,0.62,0.24,0.95,0.24c0.73,0,1.41-0.4,1.76-1.061
			c1.311-2.439,2.4-5,3.261-7.62c0-0.01,0.01-0.02,0.02-0.039v-0.011c0.061-0.21,0.101-0.42,0.09-0.64
			C-48.62-57.019-49.18-57.769-49.99-58.038z"/>
		<path fill="#21B8BF" d="M-60.91-41.858c-0.72,0.84-0.619,2.101,0.221,2.82c0.359,0.31,0.819,0.479,1.3,0.479
			c0.58,0,1.14-0.25,1.52-0.689c0.71-0.84,0.62-2.11-0.22-2.82C-58.899-42.769-60.22-42.658-60.91-41.858z"/>
		<path fill="#21B8BF" d="M-135.88-90.829c-1-0.41-2.2,0.09-2.61,1.09c-0.42,1.02,0.06,2.19,1.08,2.61c0.25,0.1,0.5,0.15,0.77,0.15
			c0.81,0,1.54-0.48,1.85-1.23C-134.37-89.229-134.86-90.398-135.88-90.829z"/>
		<path fill="#21B8BF" d="M-94.33-117.358c-0.05-1.1-0.98-1.97-2.09-1.91c-2.74,0.12-5.49,0.49-8.18,1.08
			c-0.03,0-0.06,0.01-0.08,0.01l-0.04,0.02c-0.9,0.21-1.52,1-1.53,1.92c0,0.15,0.02,0.3,0.05,0.45c0.2,0.91,1.02,1.57,1.95,1.57
			c0.15,0,0.29-0.02,0.44-0.05c2.48-0.55,5.02-0.89,7.57-1C-95.14-115.318-94.28-116.258-94.33-117.358z"/>
		<path fill="#21B8BF" d="M-139.08-81.358c-1.08-0.19-2.13,0.55-2.32,1.62c-0.47,2.72-0.71,5.52-0.71,8.3c0,1.11,0.89,2,2,2
			c1.1,0,2-0.89,2-2c0-2.56,0.22-5.12,0.65-7.61C-137.27-80.139-138-81.168-139.08-81.358z"/>
		<path fill="#21B8BF" d="M-128.48-98.869c1.59-1.98,3.36-3.84,5.28-5.53c0.83-0.73,0.91-1.99,0.18-2.82
			c-0.7-0.8-2.02-0.88-2.82-0.18c-2.08,1.83-4.02,3.86-5.76,6.02c-0.29,0.36-0.44,0.78-0.44,1.23c-0.01,0.62,0.27,1.2,0.75,1.59
			c0.35,0.28,0.79,0.44,1.25,0.44C-129.43-98.119-128.86-98.398-128.48-98.869z"/>
		<path fill="#21B8BF" d="M-86.37-114.648c0.98,0,1.811-0.69,1.971-1.66c0.189-1.08-0.54-2.12-1.63-2.31l-0.061-0.01
			c-1.07-0.14-2.07,0.59-2.25,1.64c-0.189,1.09,0.55,2.13,1.63,2.32C-86.6-114.659-86.479-114.648-86.37-114.648z"/>
		<path fill="#21B8BF" d="M-117.33-113.389c-0.46,0.26-0.8,0.68-0.95,1.2c-0.15,0.51-0.09,1.05,0.17,1.52
			c0.35,0.64,1.02,1.03,1.75,1.03c0.34,0,0.67-0.08,0.96-0.25c0.97-0.53,1.32-1.75,0.79-2.71
			C-115.12-113.539-116.39-113.909-117.33-113.389z"/>
	</g>
</g>
<g>
	<g>
		<path fill="#E23C52" d="M43.439-73.153h-5.553c-1.104,0-2,0.895-2,2c0,1.104,0.896,2,2,2h5.553c1.105,0,2-0.896,2-2
			C45.439-72.259,44.545-73.153,43.439-73.153z"/>
		<path fill="#E23C52" d="M68.786-69.149c0.017,0,0.032-0.004,0.048-0.004h2.949c1.104,0,2-0.896,2-2c0-1.105-0.896-2-2-2h-2.949
			c-0.016,0-0.031-0.006-0.048-0.006h-9c-1.101,0-2,0.9-2,2c0,1.111,0.899,2.01,2,2.01H68.786z"/>
		<path fill="#E23C52" d="M53.616-71.159c0-1.1-0.9-2-2-2c-1.101,0-2,0.9-2,2c0,1.111,0.899,2.01,2,2.01
			C52.716-69.149,53.616-70.048,53.616-71.159z"/>
		<path fill="#E23C52" d="M31.932-61.347h3c1.105,0,2-0.895,2-2c0-1.104-0.895-2-2-2h-3c-1.104,0-2,0.896-2,2
			C29.932-62.241,30.828-61.347,31.932-61.347z"/>
		<path fill="#E23C52" d="M43.855-63.347c0,1.109,0.891,2,2,2c1.101,0,2-0.891,2-2c0-1.1-0.899-2-2-2
			C44.746-65.347,43.855-64.446,43.855-63.347z"/>
		<path fill="#E23C52" d="M54.775-63.349c0,1.109,0.891,2,2,2h11.969c0.014,0,0.025,0.004,0.039,0.004h3c1.104,0,2-0.895,2-2
			c0-1.104-0.896-2-2-2h-2.959c-0.013,0-0.025-0.004-0.038-0.004H56.775C55.666-65.349,54.775-64.448,54.775-63.349z"/>
		<path fill="#3D68B0" d="M77.008-95.165h-5.969c-1.056,0-2.33,0.506-3.1,1.229l-3.487,3.27v-1.779c0-1.654-1.346-3-3-3h-4.823
			c-1.053,0-2.324,0.5-3.094,1.215l-6.806,6.324h-4.745v-2.547c0-2.771-2.255-5.025-5.027-5.025c-2.633,0-4.816,2.041-5.026,4.621
			c-0.009,0.044-0.012,1.306-0.012,2.951h-0.015v4h0.019c0.004,2.104,0.008,3.869,0.008,3.869c0,2.35,1.911,4.26,4.26,4.26
			c2.35,0,4.261-1.91,4.261-4.26v-1.309c0-1.105-0.896-2-2-2s-2,0.895-2,2v1.309c0,0.285-0.521,0.287-0.521,0v-3.869h25.201
			c1.054,0,2.325-0.385,3.093-1.105l6.433-5.99c0.081-0.062,0.308-0.152,0.382-0.162h4.969v38.168c0,1.014-0.823,1.84-1.837,1.84
			l-52.292-0.178c-1.015,0-1.84-0.826-1.84-1.84v-28.893c0-1.016,0.825-1.84,1.832-1.84h7.149v-4h-7.142
			c-3.221,0-5.84,2.619-5.84,5.84v28.893c0,3.219,2.619,5.84,5.834,5.84l52.289,0.178h0.006c3.221,0,5.84-2.619,5.84-5.84v-39.168
			C80.008-93.819,78.662-95.165,77.008-95.165z M37.984-87.907h-2.054v-2.547c0-0.566,0.46-1.025,1.026-1.025
			s1.027,0.459,1.027,1.025V-87.907z M60.452-87.907h-7.849l3.633-3.377c0.084-0.062,0.314-0.152,0.393-0.162h3.823V-87.907z"/>
	</g>
	<path fill="#21B8BF" d="M49.309-27.855c-0.718,0.718-1.886,0.717-2.603,0l-2.485-2.484l-2.828,2.828l2.485,2.485
		c2.276,2.275,5.981,2.277,8.255,0.004l2.51-2.493l-2.828-2.829L49.309-27.855z"/>
	<path fill="#21B8BF" d="M43.878-117.611l-2.485,2.485l2.828,2.828l2.485-2.484c0.717-0.717,1.885-0.718,2.603,0l2.506,2.489
		l2.828-2.829l-2.51-2.493C49.859-119.888,46.154-119.886,43.878-117.611z"/>
	<path fill="#21B8BF" d="M94.319-74.853l-2.493-2.51l-2.829,2.828l2.489,2.506c0.718,0.718,0.717,1.886,0,2.603l-2.484,2.485
		l2.828,2.828l2.485-2.485C96.591-68.874,96.593-72.579,94.319-74.853z"/>
	<path fill="#21B8BF" d="M7.05-74.534l-2.829-2.828l-2.493,2.51c-2.273,2.273-2.271,5.979,0.004,8.255l2.485,2.485l2.828-2.828
		l-2.484-2.485c-0.717-0.717-0.718-1.885,0-2.603L7.05-74.534z"/>
</g>
<g>
	<path fill="none" stroke="#3D68B0" stroke-width="4" stroke-miterlimit="10" d="M13.648,71.643"/>
	<g>
		<path fill="#21B8BF" d="M87.075,55.87c-2.38-1.354-5.217-1.684-7.777-0.906c-2.47,0.749-4.477,2.453-5.676,4.849
			c-0.86,1.841-1.926,3.592-3.169,5.209l3.174,2.437c1.419-1.847,2.639-3.851,3.596-5.904c0.872-1.736,2.241-2.461,3.238-2.763
			c1.517-0.463,3.205-0.258,4.616,0.542c2.967,1.734,3.597,4.145,2.099,8.053l-1.134,2.249c-3.822,6.692-9.388,12.287-16.098,16.181
			c-13.78,7.998-30.853,7.91-44.57-0.221c-3.721-2.548-12.458-5.453-19.322,1.554l2.861,2.797c6.24-6.371,13.923-1.241,14.24-1.023
			l0.118,0.076c7.568,4.501,16.076,6.755,24.584,6.755c8.326,0,16.653-2.158,24.1-6.479c7.335-4.257,13.417-10.379,17.59-17.704
			l1.249-2.474l0.078-0.174C93.711,61.626,90.387,57.804,87.075,55.87z"/>
		<path fill="#21B8BF" d="M69.234,41.048c-3.142,1.725-6.604-0.168-8.484-2.647c-3.04-4.057-7.692-6.383-12.764-6.383
			c-8.791,0-15.943,7.146-15.943,15.931S39.195,63.88,47.986,63.88c1.507,0,3.336-0.259,4.721-0.662
			c1.435-0.375,3.147-0.132,3.74,1.259c0.297,0.7,0.303,1.481,0.015,2.145c-0.185,0.425-0.577,0.993-1.463,1.317
			c-0.074,0.029-7.534,2.921-15.872-0.715l-0.113-0.045c-1.355-0.494-2.76-0.33-3.954,0.466c-1.453,0.967-2.448,2.814-2.537,4.778
			c-0.038,3.53,2.905,5.226,4.589,5.673c3.457,1.291,7.061,1.919,11.012,1.919c7.197,0,14.001-2.321,19.678-6.715l-2.45-3.161
			c-4.97,3.845-10.926,5.877-17.228,5.877c-3.55,0-6.634-0.541-9.706-1.7l-0.252-0.077c-0.017-0.004-1.655-0.403-1.643-1.703
			c0.031-0.684,0.409-1.332,0.755-1.562c0.117-0.078,0.193-0.092,0.321-0.052c9.903,4.28,18.536,0.872,18.833,0.751
			c1.684-0.613,2.998-1.842,3.701-3.456c0.723-1.664,0.723-3.597-0.004-5.306c-1.302-3.056-4.771-4.52-8.486-3.546
			c-1.083,0.313-2.517,0.517-3.656,0.517c-6.584,0-11.941-5.353-11.941-11.933c0-6.579,5.357-11.932,11.941-11.932
			c3.799,0,7.283,1.741,9.567,4.789c3.532,4.662,9.129,6.203,13.607,3.747c4.668-2.562,6.559-8.044,4.398-12.75
			c-0.171-0.373-0.621-1.072-0.97-1.592c-0.392-0.585-0.806-1.163-1.231-1.716l-3.173,2.437c0.376,0.488,0.735,0.99,1.077,1.502
			c0.257,0.381,0.595,0.912,0.66,1.036C73.219,36.294,72.088,39.481,69.234,41.048z"/>
		<path fill="#21B8BF" d="M7.258,73.313l0.128,0.193c2.244,3.843,5.887,6.039,9.587,6.039c1.172,0,2.351-0.221,3.493-0.68
			c2.637-1.059,4.734-3.146,5.756-5.723c0.985-2.487,0.895-5.221-0.256-7.694l-0.08-0.154c-0.771-1.341-1.652-2.731-2.433-3.847
			l-0.174-0.371c-2.14-4.012-3.271-8.551-3.27-13.129c0-15.414,12.55-27.954,27.977-27.954c6.194,0,12.061,1.979,16.967,5.726
			l2.431-3.178c-5.61-4.283-12.318-6.547-19.397-6.547c-17.634,0-31.979,14.334-31.979,31.953
			c-0.001,5.209,1.282,10.378,3.709,14.951l0.168,0.37l0.189,0.33c0.714,1.008,1.567,2.351,2.296,3.61
			c0.834,1.85,0.533,3.444,0.13,4.463c-0.618,1.562-1.903,2.832-3.527,3.484c-3.334,1.337-6.55-0.963-8.183-3.751l-0.159-0.242
			c-0.232-0.375-0.462-0.753-0.685-1.137C6.058,63.354,4.002,55.72,4.002,47.948c0-10.035,3.474-19.85,9.78-27.634l-3.11-2.516
			C3.79,26.293,0,37,0,47.948c0,8.476,2.244,16.808,6.488,24.09C6.73,72.456,6.98,72.87,7.258,73.313z"/>
		<path fill="#21B8BF" d="M94.958,10.54l-3.498,1.942c0.692,1.242,0.566,2.362,0.339,3.084c-0.347,1.104-1.171,2.043-2.258,2.574
			c-2.221,1.082-4.57-0.379-5.815-2.193l-0.548-0.597C74.122,5.596,61.296,0,47.986,0C36.711,0,25.754,3.985,17.135,11.223
			l2.574,3.062c7.9-6.633,17.942-10.286,28.277-10.286c12.199,0,23.957,5.129,32.307,14.122l0.24,0.242
			c1.897,2.673,4.654,4.149,7.408,4.149c1.139,0,2.279-0.254,3.356-0.779c2.069-1.011,3.645-2.821,4.318-4.968
			C96.271,14.688,96.037,12.477,94.958,10.54z"/>
	</g>
	<g>
		<path fill="#3D68B0" d="M72.908,23.168c-1-1.001-2.331-1.552-3.746-1.552c-1.414,0-2.744,0.551-3.743,1.551
			c-1.002,0.999-1.553,2.329-1.553,3.743c0,1.413,0.551,2.743,1.553,3.741c1,1,2.329,1.551,3.743,1.551
			c1.415,0,2.746-0.551,3.746-1.551C74.974,28.589,74.974,25.23,72.908,23.168z M70.532,28.28c-0.73,0.73-2.005,0.732-2.737-0.001
			c-0.365-0.365-0.569-0.852-0.569-1.366c0-0.517,0.204-1.001,0.569-1.367c0.367-0.366,0.852-0.567,1.367-0.567
			c0.519,0,1.003,0.201,1.37,0.567C71.286,26.299,71.286,27.526,70.532,28.28z"/>
		<path fill="#3D68B0" d="M5.349,85.415c-1.415,0-2.745,0.551-3.745,1.551c-1.001,1-1.552,2.328-1.552,3.742
			c0,1.413,0.551,2.742,1.552,3.741c1.001,1,2.33,1.551,3.745,1.551s2.744-0.551,3.745-1.551c2.065-2.063,2.065-5.42,0.001-7.483
			C8.094,85.966,6.764,85.415,5.349,85.415z M6.718,92.078c-0.731,0.73-2.004,0.732-2.738-0.001
			c-0.365-0.365-0.567-0.852-0.567-1.366c0-0.517,0.202-1.001,0.568-1.367c0.367-0.366,0.853-0.567,1.368-0.567
			c0.517,0,1.003,0.201,1.369,0.567C7.472,90.097,7.472,91.324,6.718,92.078z"/>
	</g>
	<g>
		<path fill="#E23C52" d="M93.816,2.239c-1.408-1.407-3.28-2.183-5.271-2.183c-1.992,0-3.865,0.775-5.272,2.182
			c-1.408,1.407-2.185,3.278-2.185,5.27c0,1.989,0.776,3.859,2.184,5.268c1.408,1.407,3.281,2.182,5.273,2.182
			c1.991,0,3.863-0.774,5.271-2.182c1.408-1.408,2.185-3.278,2.185-5.268C96.001,5.517,95.225,3.646,93.816,2.239z M90.987,9.948
			c-1.307,1.303-3.581,1.304-4.885-0.001c-0.653-0.651-1.013-1.519-1.013-2.439c0-0.922,0.359-1.789,1.013-2.441
			c0.652-0.651,1.52-1.011,2.442-1.011c0.922,0,1.79,0.359,2.442,1.011c0.652,0.652,1.012,1.52,1.012,2.441
			C91.999,8.429,91.64,9.296,90.987,9.948z"/>
		<path fill="#E23C52" d="M69.242,63.955c-1.414,0-2.745,0.551-3.745,1.551c-1.001,0.999-1.552,2.329-1.552,3.742
			c0,1.414,0.551,2.742,1.552,3.741c1,1,2.331,1.551,3.745,1.551c1.415,0,2.744-0.551,3.744-1.551
			c2.065-2.062,2.065-5.42,0.001-7.483C71.987,64.506,70.657,63.955,69.242,63.955z M70.61,70.619
			c-0.73,0.73-2.003,0.732-2.737-0.002c-0.365-0.365-0.567-0.852-0.567-1.367c0-0.515,0.202-0.999,0.569-1.366
			c0.365-0.365,0.852-0.566,1.367-0.566c0.517,0,1.003,0.201,1.368,0.566C71.364,68.638,71.364,69.865,70.61,70.619z"/>
		<path fill="#E23C52" d="M15.203,9.733c-1.628,0-3.158,0.633-4.309,1.782c-1.151,1.15-1.784,2.68-1.784,4.306
			s0.633,3.154,1.784,4.304c1.15,1.149,2.681,1.783,4.309,1.783c1.627,0,3.156-0.634,4.307-1.783
			c1.151-1.149,1.785-2.678,1.785-4.304s-0.634-3.155-1.784-4.306C18.359,10.366,16.83,9.733,15.203,9.733z M16.681,17.298
			c-0.79,0.788-2.165,0.789-2.957,0c-0.395-0.395-0.611-0.919-0.611-1.477c0-0.559,0.217-1.083,0.612-1.478
			c0.395-0.395,0.92-0.611,1.479-0.611c0.558,0,1.082,0.217,1.478,0.611c0.395,0.395,0.612,0.919,0.612,1.478
			C17.293,16.379,17.075,16.903,16.681,17.298z"/>
	</g>
</g>
<g>
	<g>
		<path fill="#21B8BF" d="M212.588-113.334l-7.374,7.406l29.273,29.397l7.372-7.405L212.588-113.334z M210.819-105.928l1.769-1.777
			l23.667,23.77l-1.768,1.776L210.819-105.928z"/>
		<path fill="#21B8BF" d="M154.238-54.732l29.271,29.398l7.373-7.406l-29.271-29.396L154.238-54.732z M183.51-30.964l-23.667-23.769
			l1.769-1.776l23.667,23.769L183.51-30.964z"/>
	</g>
	<g>
		<polygon fill="#3D68B0" points="195.954,-75.399 199.916,-75.348 200.131,-91.987 209.653,-101.551 206.852,-104.365 
			196.19,-93.659 		"/>
		<polygon fill="#3D68B0" points="195.937,-63.377 196.097,-46.763 186.469,-37.095 189.27,-34.281 200.074,-45.131 
			199.898,-63.416 		"/>
		<polygon fill="#3D68B0" points="230.15,-80.965 220.64,-71.412 173.906,-71.396 163.11,-60.556 165.912,-57.741 175.548,-67.416 
			222.281,-67.434 232.953,-78.151 		"/>
		<path fill="#3D68B0" d="M161.805-78.45l-2.285,1.859c3.377-18.234,19.493-31.998,38.324-31.998v-3.979
			c-21.055,0-39.025,15.623-42.374,36.16l-2.39-2.964L150-76.867l6.398,7.936l7.9-6.426L161.805-78.45z"/>
	</g>
	<g>
		<ellipse fill="#E23C52" cx="174.744" cy="-57.75" rx="2.104" ry="2.113"/>
		<ellipse fill="#E23C52" cx="186.08" cy="-57.626" rx="2.104" ry="2.115"/>
		<ellipse fill="#E23C52" cx="186.264" cy="-46.019" rx="2.104" ry="2.115"/>
		<ellipse fill="#E23C52" cx="206.446" cy="-77.484" rx="2.104" ry="2.114"/>
		<ellipse fill="#E23C52" cx="214.699" cy="-85.733" rx="2.105" ry="2.114"/>
		<path fill="#E23C52" d="M246.001-61.962l-6.399-7.936l-7.9,6.426l2.494,3.094l2.287-1.859
			c-3.378,18.231-19.494,31.997-38.325,31.997v3.979c21.055,0,39.025-15.625,42.373-36.161l2.391,2.965L246.001-61.962z"/>
	</g>
</g>
</svg>
